<svg width="192" height="39" viewBox="0 0 192 39" fill="none" xmlns="http://www.w3.org/2000/svg">
<path d="M67.3063 18.1585H78.4953C78.4112 18.5676 78.3765 18.8579 78.2908 19.1317C77.8833 20.4382 77.4396 21.7331 77.0536 23.0461C76.8919 23.5954 76.595 23.7439 76.044 23.7423C71.0458 23.7225 66.046 23.7324 61.0478 23.7291C60.0465 23.7291 59.9607 23.5971 60.284 22.6008C61.7538 18.0727 63.2269 13.5446 64.6966 9.01653C64.8039 8.68662 64.8913 8.35175 64.8253 7.91792C64.1193 8.58434 63.405 9.24252 62.7073 9.9172C58.326 14.15 53.9431 18.3812 49.5767 22.6271C48.8278 23.3563 47.9914 23.7489 46.9341 23.7373C44.7649 23.7142 42.594 23.7406 40.4248 23.7274C38.8495 23.7175 38.2524 22.8647 38.7439 21.352C40.8471 14.8709 42.9586 8.39299 45.0502 1.91018C45.2218 1.38066 45.4791 1.18931 46.0482 1.20581C47.5576 1.2487 49.0686 1.22065 50.5796 1.22065C51.4044 1.22065 51.6925 1.60335 51.444 2.36876C50.0237 6.74177 48.6034 11.1131 47.1848 15.4862C47.1122 15.7088 47.066 15.9398 46.9439 16.4083C47.7869 15.595 48.4599 14.9616 49.1164 14.31C53.087 10.3626 57.0657 6.4201 61.0148 2.45123C61.866 1.59511 62.826 1.20911 64.0253 1.21241C70.3976 1.2322 76.7699 1.22065 83.1421 1.2223C84.0824 1.2223 84.1203 1.27179 83.8399 2.13287C83.4077 3.45912 82.9459 4.77713 82.5516 6.11493C82.3982 6.63785 82.1359 6.78466 81.6163 6.78301C78.4029 6.76322 75.1896 6.79126 71.9762 6.75992C71.2867 6.75332 70.9023 6.94467 70.7407 7.63749C70.5939 8.27092 70.3547 8.88127 70.099 9.68131H81.2864C81.1841 10.1184 81.1429 10.3791 81.0637 10.6282C80.6579 11.9049 80.2109 13.1718 79.8414 14.4585C79.6616 15.087 79.3712 15.3195 78.69 15.3113C75.4766 15.2734 72.2632 15.3113 69.0499 15.28C68.4131 15.2734 68.103 15.468 67.9611 16.0915C67.811 16.7464 67.5603 17.3766 67.3063 18.1601V18.1585Z" fill="#052424"/>
<path d="M151.619 6.70032C152.201 4.92208 152.719 3.25767 153.314 1.62294C153.39 1.41345 153.869 1.24024 154.162 1.23694C156.935 1.20725 159.71 1.22045 162.484 1.22045C165.78 1.22045 169.076 1.24024 172.372 1.20395C173.047 1.19735 173.276 1.43984 173.378 2.06338C173.856 4.97817 174.369 7.88801 174.874 10.7995C174.896 10.9265 174.955 11.0486 175.036 11.2894C175.292 11.0552 175.493 10.8952 175.666 10.7088C178.396 7.77749 181.133 4.85445 183.84 1.90172C184.282 1.41839 184.722 1.18745 185.392 1.20395C187.259 1.24849 189.127 1.21385 190.994 1.22539C191.268 1.22539 191.542 1.30292 192 1.37386C191.672 1.7648 191.48 2.01884 191.264 2.24978C186.563 7.27932 181.849 12.299 177.167 17.3483C176.702 17.8514 176.332 18.4915 176.077 19.1298C175.56 20.4248 175.166 21.7692 174.688 23.0806C174.599 23.3231 174.355 23.6876 174.175 23.6926C172.4 23.7387 170.622 23.7206 168.735 23.7206C168.809 23.3379 168.843 23.0756 168.911 22.8216C168.997 22.5049 169.107 22.1948 169.211 21.883C170.086 19.2822 170.268 16.6313 169.757 13.9304C169.363 11.8057 169.002 9.6745 168.662 7.53995C168.571 6.97415 168.358 6.74321 167.761 6.76136C166.527 6.80095 165.289 6.79765 164.055 6.76301C163.354 6.74321 163.027 7.05993 162.821 7.69996C161.194 12.7526 159.532 17.792 157.918 22.848C157.71 23.4996 157.443 23.7783 156.729 23.747C155.413 23.6876 154.093 23.7338 152.775 23.7272C152.485 23.7272 152.194 23.6959 151.762 23.6711C152.071 22.7061 152.339 21.8566 152.615 21.0087C154.045 16.6109 155.479 12.2148 156.907 7.81708C157.209 6.88672 157.131 6.7795 156.14 6.7729C154.959 6.76631 153.778 6.77455 152.597 6.76795C152.31 6.76631 152.024 6.72837 151.617 6.70032H151.619Z" fill="#052424"/>
<path d="M22.9737 38.171C22.7428 38.1875 22.558 38.2139 22.3733 38.2139C19.0774 38.2155 15.7832 38.204 12.4874 38.2271C11.9562 38.2304 11.7137 38.0539 11.5537 37.5557C7.75641 25.7547 3.9459 13.9569 0.140338 2.15754C-0.133491 1.30966 -0.0592601 1.20408 0.839756 1.20408C4.02508 1.20078 7.2104 1.21728 10.3957 1.18759C10.9434 1.18264 11.1562 1.38719 11.3112 1.87051C15.1333 13.7507 18.9669 25.6276 22.7972 37.5046C22.8632 37.7091 22.9077 37.9202 22.9721 38.171H22.9737Z" fill="#052424"/>
<path d="M121.103 9.52602C120.933 17.3186 113.658 24.5338 106.044 24.359C101.687 24.2584 98.3107 20.9477 97.89 16.6225C97.2071 9.58871 103.169 1.97593 110.521 0.747003C115.192 -0.0332447 119.17 2.18543 120.478 6.32256C120.803 7.35354 120.9 8.4571 121.101 9.52767L121.103 9.52602ZM103.766 13.838C103.71 16.8138 106.009 18.7471 108.95 18.1995C112.035 17.6254 114.716 14.7601 115.055 11.6754C115.351 9.00146 113.746 6.92465 111.222 6.7135C107.593 6.40998 103.837 9.9978 103.766 13.8397V13.838Z" fill="#052424"/>
<path d="M143.434 1.42015C143.297 1.88038 143.18 2.29277 143.049 2.70022C142.85 3.3254 142.644 3.94894 142.439 4.57248C141.956 6.0472 140.952 6.78016 139.425 6.77136C138.218 6.76641 137.01 6.76311 135.803 6.77136C132.151 6.7961 129.787 8.64857 128.848 12.1968C128.513 13.4637 128.376 14.7239 128.817 15.9941C129.327 17.4639 130.29 18.1617 131.831 18.1633C133.533 18.1649 135.235 18.1633 136.938 18.1633C137.233 18.1633 137.528 18.1633 137.903 18.1633C137.871 18.4404 137.88 18.6268 137.828 18.7918C137.367 20.2517 136.91 21.7148 136.407 23.1615C136.327 23.3875 136.03 23.6993 135.834 23.6976C133.668 23.6943 131.468 23.8675 129.345 23.5442C124.927 22.8712 122.146 19.765 122.128 15.3029C122.108 10.5241 123.865 6.41175 127.849 3.49861C130.075 1.87048 132.683 1.31458 135.377 1.23869C137.845 1.16941 140.318 1.25849 142.787 1.28653C142.97 1.28818 143.152 1.35746 143.435 1.41685L143.434 1.42015Z" fill="#052424"/>
<path d="M12.8354 1.21234H13.6734C20.7056 1.21234 27.7377 1.21234 34.7682 1.21234C35.8288 1.21234 35.8816 1.27833 35.5616 2.27962C34.6098 5.25049 33.6382 8.21642 32.7029 11.1939C32.5462 11.6921 32.3235 11.8735 31.7857 11.8702C26.8139 11.8488 21.8421 11.8504 16.8703 11.8669C16.3886 11.8669 16.1428 11.7366 15.9911 11.2582C14.9865 8.07291 13.9539 4.89749 12.9328 1.71876C12.8932 1.59339 12.8816 1.45813 12.8354 1.21069V1.21234Z" fill="#052424"/>
<path d="M96.3203 18.2177C96.0844 19.0029 95.8914 19.6776 95.6786 20.3457C95.446 21.0764 95.1986 21.8022 94.9544 22.5281C94.514 23.8312 94.8868 23.7289 93.2768 23.7306C88.9385 23.7355 84.5984 23.7339 80.2601 23.7306C79.2324 23.7306 79.1449 23.6069 79.4617 22.6336C81.6688 15.8423 83.8924 9.05601 86.0682 2.25482C86.3338 1.42509 86.7148 1.14136 87.5775 1.1991C88.8081 1.28158 90.0486 1.21724 91.2841 1.22054C92.2211 1.22384 92.2854 1.31292 91.9935 2.22183C90.8355 5.81625 89.6758 9.40902 88.5162 13.0018C88.079 14.3561 87.6419 15.7087 87.2048 17.063C86.8814 18.066 86.9458 18.1633 87.98 18.1649C90.4791 18.1682 92.9783 18.1649 95.4774 18.1682C95.6934 18.1682 95.9079 18.193 96.3203 18.2194V18.2177Z" fill="#052424"/>
<path d="M24.2349 36.7639C23.2221 33.6165 22.2076 30.4675 21.1948 27.3201C20.4409 24.9777 19.6689 22.6402 18.953 20.2863C18.8276 19.8739 18.8392 19.3625 18.9596 18.9452C19.433 17.3171 19.9823 15.712 20.4888 14.0938C20.6174 13.6831 20.8088 13.4538 21.2905 13.4571C24.6671 13.4736 28.0422 13.467 31.4188 13.4719C31.5491 13.4719 31.6811 13.523 31.9087 13.5692C29.4047 21.3239 26.9138 29.0389 24.423 36.7556L24.2382 36.7639H24.2349Z" fill="#052424"/>
<path d="M151.32 1.21865C151.237 1.603 151.206 1.86363 151.127 2.10777C148.874 9.05577 146.61 16.0005 144.369 22.9518C144.192 23.4978 143.961 23.7386 143.343 23.7205C141.703 23.671 140.062 23.704 138.282 23.704C138.391 23.2784 138.45 22.9716 138.547 22.6746C140.781 15.8058 143.031 8.94359 145.24 2.06653C145.457 1.39021 145.759 1.18071 146.449 1.20215C148.031 1.25329 149.616 1.21865 151.323 1.21865H151.32Z" fill="#052424"/>
<path d="M102.351 29.8901C101.386 32.6944 100.444 35.4293 99.5006 38.1676H97.4189C97.3248 36.3713 97.2325 34.6112 97.1401 32.8511C97.0823 32.8445 97.0246 32.8362 96.9669 32.8296C96.5 34.2054 96.0382 35.5828 95.5647 36.9552C95.2414 37.8944 94.5437 38.2826 93.4714 38.1198C94.3836 35.4772 95.286 32.8412 96.2147 30.2167C96.2757 30.0435 96.5347 29.8472 96.7194 29.8274C97.2308 29.7746 97.7537 29.8093 98.407 29.8093C98.501 31.637 98.5917 33.4136 98.6841 35.1885C98.7402 35.1951 98.7946 35.2001 98.8507 35.2067C99.3192 33.821 99.7876 32.4337 100.256 31.0481C100.566 30.132 101.265 29.7466 102.351 29.8917V29.8901Z" fill="#052424"/>
<path d="M122.921 38.1723H121.041C120.916 37.2387 120.79 36.3017 120.665 35.3565C119.97 35.0843 119.583 35.2641 119.388 35.9949C119.192 36.7306 118.893 37.4399 118.632 38.1789H116.848C117.084 37.4993 117.303 36.8692 117.521 36.239C118.179 34.3255 118.857 32.4203 119.479 30.4952C119.652 29.9575 119.903 29.7661 120.464 29.7942C121.503 29.8453 122.549 29.7843 123.589 29.842C124.777 29.908 125.196 30.4804 124.959 31.645C124.683 32.9993 124.168 34.2018 122.859 34.9128C122.694 35.0019 122.57 35.345 122.588 35.5561C122.659 36.399 122.794 37.2354 122.92 38.1723H122.921ZM120.177 33.763C122.054 33.989 122.712 33.6377 122.969 32.2636C123.024 31.9732 122.813 31.3728 122.657 31.3497C122.092 31.2623 121.348 30.8796 120.962 31.5724C120.599 32.2256 120.442 32.9927 120.177 33.7647V33.763Z" fill="#052424"/>
<path d="M47.3163 38.1674H45.4127C45.3253 37.3954 45.2692 36.6349 45.1372 35.8876C45.096 35.6567 44.8255 35.2707 44.7034 35.2872C44.4197 35.3251 44.0716 35.5033 43.9149 35.7359C43.6939 36.0658 43.6163 36.493 43.4844 36.8823C43.1489 37.8699 42.4077 38.2845 41.2607 38.1261C42.0459 35.8431 42.8212 33.57 43.6081 31.3018C44.1293 29.8007 44.1376 29.7991 45.7426 29.804C46.5097 29.8057 47.28 29.7875 48.0438 29.8436C49.1028 29.9195 49.5564 30.4424 49.3849 31.4651C49.1523 32.8475 48.6492 34.0896 47.3427 34.8682C47.125 34.9985 46.9683 35.4307 46.9848 35.7111C47.0326 36.498 47.186 37.2782 47.313 38.1674H47.3163ZM44.5797 33.7234C46.2672 34.0682 46.998 33.6805 47.3757 32.3229C47.4945 31.8957 47.5621 31.3959 47.0392 31.3249C46.4948 31.2507 45.6519 31.2243 45.4078 31.5394C44.9541 32.125 44.8403 32.9729 44.5813 33.7218L44.5797 33.7234Z" fill="#052424"/>
<path d="M58.5497 29.8456C57.7349 32.1039 57.047 34.2962 56.1529 36.3994C55.4024 38.1644 52.6872 39.0008 50.9848 38.0919C50.645 37.9104 50.3431 37.4056 50.287 37.013C50.2178 36.5264 50.3629 35.982 50.5213 35.4954C50.9996 34.0125 51.5292 32.546 52.0389 31.0746C52.3765 30.098 53.1062 29.7115 54.2279 29.9149C53.6324 31.6519 53.0418 33.3774 52.4496 35.1028C52.4232 35.1804 52.3902 35.2562 52.3704 35.3354C52.2302 35.8699 51.8459 36.4621 52.5783 36.8464C53.1622 37.1516 54.0794 36.8233 54.444 36.2047C54.6238 35.9029 54.7491 35.5631 54.8646 35.2282C55.3776 33.7568 55.9286 32.2969 56.3641 30.8024C56.5966 30.0024 56.9744 29.646 57.8025 29.8028C57.9872 29.8374 58.1819 29.8258 58.5514 29.8456H58.5497Z" fill="#052424"/>
<path d="M133.054 32.0774H131.461C131.278 31.1668 131.02 30.9804 130.131 31.0975C129.386 31.1965 128.722 31.9025 128.894 32.559C128.968 32.8428 129.359 33.1248 129.669 33.2486C130.172 33.4498 130.743 33.4778 131.256 33.6593C132.056 33.9414 132.294 34.4478 132.097 35.2775C131.505 37.7915 128.737 39.1771 126.322 38.1643C125.539 37.836 125.105 36.4124 125.743 35.9522C126.141 35.6668 126.824 35.7773 127.381 35.7097C127.495 36.8034 127.767 37.0277 128.741 36.9254C129.565 36.838 130.359 36.0281 130.205 35.3435C130.154 35.1142 129.852 34.8602 129.61 34.7695C129.127 34.5897 128.595 34.5402 128.097 34.3917C127.081 34.0882 126.74 33.4745 127.002 32.4452C127.365 31.0183 128.237 30.0385 129.699 29.768C130.494 29.6195 131.349 29.6244 132.154 29.73C133.269 29.8768 133.528 30.6125 133.054 32.079V32.0774Z" fill="#052424"/>
<path d="M72.1588 38.1789H70.1248C69.8642 37.0885 69.6069 36.0113 69.3495 34.9342C69.2951 34.9243 69.239 34.9144 69.1846 34.9045C68.9091 35.6913 68.5611 36.4633 68.3796 37.2716C68.1948 38.0931 67.7478 38.3257 66.989 38.2119C66.7746 38.1805 66.5535 38.1888 66.25 38.1739C67.0204 35.9354 67.7759 33.7432 68.5314 31.5509C68.5841 31.3958 68.6435 31.2424 68.6963 31.0874C69.1961 29.6258 69.2209 29.611 70.8655 29.9129C70.5438 30.8944 70.2255 31.8676 69.9055 32.8425C69.9516 32.8705 69.9978 32.8986 70.0457 32.9283C70.6709 32.2503 71.3818 31.6301 71.9031 30.8795C72.6437 29.8122 73.6054 29.639 74.8921 29.898C73.9535 30.8564 73.1271 31.8379 72.1588 32.6511C71.2119 33.4446 70.9249 34.2364 71.4099 35.4076C71.7612 36.2571 71.8998 37.1924 72.1571 38.1805L72.1588 38.1789Z" fill="#052424"/>
<path d="M88.173 36.7555H91.3534C91.2065 38.1461 91.1406 38.2088 89.8473 38.2088C88.5573 38.2088 87.269 38.2088 85.8652 38.2088C85.9477 37.8904 85.9939 37.638 86.0764 37.3988C86.8566 35.1191 87.6583 32.846 88.4188 30.5597C88.6002 30.017 88.8394 29.7679 89.4563 29.7894C90.8783 29.8388 92.3035 29.8042 93.7337 29.8042C93.6083 31.1503 93.5192 31.2377 92.348 31.2377C92.0462 31.2377 91.7443 31.2377 91.4408 31.2377C89.8292 31.2377 89.6295 31.4307 89.4547 33.2617H92.0577C92.0346 34.4527 91.8796 34.616 90.8403 34.6193C90.7859 34.6193 90.7298 34.6193 90.6754 34.6193C89.348 34.6193 88.5133 35.3308 88.1713 36.7539L88.173 36.7555Z" fill="#052424"/>
<path d="M84.2171 35.6488C83.902 36.7046 83.3824 37.6448 82.3761 37.9467C81.388 38.242 80.2828 38.3096 79.2485 38.2321C78.3083 38.1611 77.8118 37.4089 78.0724 36.5132C78.5656 34.8125 79.0803 33.092 79.8275 31.4936C80.7463 29.5289 83.0425 29.3392 84.773 29.8374C85.6769 30.098 86.0745 31.6305 85.3635 32.2309C85.0072 32.5311 84.3012 32.4173 84.0208 32.4553C83.6677 31.8796 83.516 31.2907 83.1795 31.1554C82.5361 30.8948 81.7707 31.1026 81.4837 31.7806C80.8899 33.1877 80.4032 34.6426 79.9562 36.1041C79.8968 36.2971 80.3439 36.8761 80.5369 36.8679C81.0416 36.8448 81.807 36.7376 81.9852 36.406C82.5246 35.3981 83.3114 35.5746 84.2187 35.6505L84.2171 35.6488Z" fill="#052424"/>
<path d="M111.607 36.7658H114.797C114.577 37.7281 114.014 38.2092 113.109 38.2092C111.852 38.2092 110.594 38.2092 109.233 38.2092C109.383 37.7308 109.494 37.3432 109.624 36.9638C110.369 34.7896 111.108 32.6138 111.884 30.4512C111.974 30.1989 112.27 29.8459 112.479 29.8393C114.012 29.7865 115.546 29.8112 117.078 29.8112C117.087 31.0253 116.892 31.2381 115.839 31.2397C115.538 31.2397 115.236 31.2397 114.934 31.2397C113.169 31.2397 113.144 31.2628 112.817 33.2522H115.495C115.32 34.5966 115.295 34.6197 114.168 34.6214C114.086 34.6214 114.003 34.6214 113.921 34.6214C111.998 34.6214 111.909 34.7022 111.605 36.7658H111.607Z" fill="#052424"/>
<path d="M64.6484 32.4566C64.3581 31.8727 64.2641 31.3069 63.977 31.1798C63.3452 30.9027 62.6409 31.0512 62.2252 31.6747C61.9431 32.0987 61.7831 32.6084 61.6033 33.0933C61.3179 33.862 61.0474 34.639 60.7983 35.4192C60.6449 35.8976 60.3447 36.4271 60.9583 36.8148C61.44 37.1183 62.4594 36.9616 62.7233 36.3908C63.2166 35.3236 64.0364 35.6139 64.8513 35.6386C64.2822 37.9332 61.4647 39.1918 59.4539 38.0932C58.8073 37.7402 58.5516 37.1232 58.7495 36.4898C59.2856 34.7726 59.7789 33.0142 60.5641 31.4075C61.4994 29.494 63.7741 29.3439 65.4715 29.8387C66.3475 30.0944 66.745 31.7077 66.0373 32.2471C65.6563 32.5374 64.9618 32.4187 64.6484 32.455V32.4566Z" fill="#052424"/>
<path d="M37.8492 31.2806C37.2141 31.2525 36.7027 31.2278 36.193 31.2047C36.1551 30.0549 36.3745 29.8058 37.4038 29.8042C38.9115 29.8042 40.4176 29.8042 41.9352 29.8042C41.7488 31.2096 41.7306 31.2608 40.4407 31.2228C39.827 31.2047 39.5829 31.434 39.4047 31.9915C38.8554 33.712 38.2038 35.4028 37.6793 37.1299C37.4252 37.9663 37.0293 38.3853 36.132 38.2121C35.9753 38.1824 35.8087 38.2071 35.4919 38.2071C36.2887 35.8664 37.0557 33.6131 37.8492 31.2789V31.2806Z" fill="#052424"/>
<path d="M103.471 38.1593C104.25 35.8747 105.013 33.6362 105.827 31.2476H104.063C104.24 30.2865 104.752 29.8059 105.597 29.8059C107.018 29.8059 108.44 29.8059 109.865 29.8059C109.771 31.1272 109.662 31.2806 108.494 31.2212C107.814 31.1866 107.542 31.4357 107.346 32.0592C106.805 33.7781 106.148 35.4606 105.624 37.1844C105.378 37.9944 104.997 38.3853 104.138 38.2138C103.953 38.1775 103.76 38.1824 103.469 38.161L103.471 38.1593Z" fill="#052424"/>
</svg>
