<?xml version="1.0" encoding="utf-8"?>
<!-- Generated by IcoMoon.io -->
<!DOCTYPE svg PUBLIC "-//W3C//DTD SVG 1.1//EN" "http://www.w3.org/Graphics/SVG/1.1/DTD/svg11.dtd">
<svg version="1.1" id="Layer_1" xmlns="http://www.w3.org/2000/svg" xmlns:xlink="http://www.w3.org/1999/xlink" x="0px" y="0px"
	 viewBox="0 0 475 113" enable-background="new 0 0 475 113" xml:space="preserve">
<g>
	<polyline points="232.5,76.1 253.9,76.1 252.3,83.8 240.3,83.8 238.9,90 250.2,90 248.6,97.4 237.4,97.4 235.8,104.6 248.3,104.6 
		246.7,112.3 224.8,112.3 232.5,76.1 	"/>
</g>
<g>
	<g>
		<polyline points="253.4,84.9 262.8,84.9 261.2,104.6 261.3,104.6 268.1,84.9 277.5,84.9 265,112.3 254.2,112.3 253.4,84.9 		"/>
		<path d="M284.1,100.1l-0.8,3.6c-0.6,2.9,0.4,3.7,1.7,3.7c1.6,0,2.8-1,3.6-4.8h8.2c-1.5,6.6-5.4,10.3-12.9,10.3
			c-8.8,0-10.8-4-8.6-14.4c2.2-10.5,6.5-14.4,14.7-14.4c7.3,0,10.3,3.2,8.2,13.2l-0.6,2.8H284.1 M290.4,93.9
			c0.6-2.9,0.3-4.2-1.6-4.2c-1.9,0-2.8,1.3-3.4,4.2l-0.3,1.2h5L290.4,93.9z"/>
		<path d="M303.1,84.9h8.8l-0.9,4.4h0.1c1.7-3.3,4.5-5.1,7.2-5.1h1.5l-1.8,8.5c-0.8-0.2-1.5-0.2-2.2-0.2c-3.2,0-5.4,1.3-6.2,4.9
			l-3.2,14.9h-9.1L303.1,84.9"/>
		<path d="M336.4,76.1h9.1L343,88h0.1c1.5-2.8,3.9-3.8,6.5-3.8c5.3,0,7.7,3.2,5.5,13.8c-2.2,10.1-5.3,15-11.4,15
			c-3.2,0-4.8-1.4-5.3-4.5h-0.1l-0.8,3.8h-8.8L336.4,76.1 M341.7,106.2c2.1,0,3-1.7,4.2-7.6c1.3-5.9,1.2-7.7-1-7.7
			c-2.1,0-2.9,1.7-4.2,7.7C339.5,104.5,339.6,106.2,341.7,106.2z"/>
		<path d="M365.8,100.1l-0.8,3.6c-0.6,2.9,0.4,3.7,1.7,3.7c1.6,0,2.8-1,3.6-4.8h8.2c-1.5,6.6-5.4,10.3-12.9,10.3
			c-8.8,0-10.8-4-8.6-14.4c2.2-10.5,6.5-14.4,14.7-14.4c7.3,0,10.3,3.2,8.2,13.2l-0.6,2.8H365.8 M372.1,93.9
			c0.6-2.9,0.3-4.2-1.6-4.2c-1.9,0-2.8,1.3-3.4,4.2l-0.3,1.2h5L372.1,93.9z"/>
		<path d="M410.2,91h3.6l1.3-6.1h-3.6l1.7-8.1h-9.1l-1.7,8.1h-6.8l1.7-8.1h-9.1l-1.7,8.1h-3l-1.3,6.1h3l-3.1,14.6
			c-1.3,6.1,0.7,7,6.3,7c1.5,0,3.3-0.1,5-0.3l1.3-6.1h-1.4c-1.5,0-2.1-0.6-1.7-2.1l2.8-13.1h6.8l-3.1,14.6c-1.3,6.1,0.7,7,6.3,7
			c1.5,0,3.3-0.1,5-0.3l1.3-6.1h-1.4c-1.5,0-2.1-0.6-1.7-2.1L410.2,91"/>
		<path d="M422.1,100.1l-0.8,3.6c-0.6,2.9,0.4,3.7,1.7,3.7c1.6,0,2.8-1,3.6-4.8h8.2c-1.5,6.6-5.4,10.3-12.9,10.3
			c-8.8,0-10.8-4-8.6-14.4c2.2-10.5,6.5-14.4,14.7-14.4c7.3,0,10.3,3.2,8.2,13.2l-0.6,2.8H422.1 M428.5,93.9
			c0.6-2.9,0.3-4.2-1.6-4.2c-1.9,0-2.8,1.3-3.4,4.2l-0.3,1.2h5L428.5,93.9z"/>
	</g>
</g>
<path d="M441.2,84.9h8.8l-0.9,4.4h0.1c1.7-3.3,4.5-5.1,7.2-5.1h1.5l-1.8,8.5c-0.8-0.2-1.5-0.2-2.2-0.2c-3.2,0-5.4,1.3-6.2,4.9
	l-3.2,14.9h-9.1L441.2,84.9"/>
<polyline points="451.4,102.3 459.9,102.3 457.8,112.3 449.3,112.3 451.4,102.3 "/>
<path d="M466.7,79.4h-1.9v5.2h-1v-5.2h-1.9v-0.8h4.7V79.4 M474.5,84.6h-1v-5h0l-2,5h-0.6l-2-5h0v5h-1v-6h1.5l1.8,4.6l1.8-4.6h1.5
	V84.6z"/>
<path fill="#CE2028" d="M125.6,0.7h40.7c14.8,0,22.5,4.4,19.7,17c-1.7,7.7-6.3,13.6-17.1,16l0,0.2c6.5,0.6,9.5,3.4,9.8,8.6
	c0.3,5.8-2,15.3-1.1,25.4h-26.7c-0.5-5,0.5-13.5,0.8-19.3c0.2-3.3-1.3-4.7-5.7-4.7h-3.1l-5.2,23.9H111L125.6,0.7 M148.5,28.7
	c5.2,0,9.4-1.8,10.5-6.8c1.1-4.9-2.2-6-7.6-6H149l-2.8,12.7H148.5z"/>
<polyline fill="#CE2028" points="193.5,69.3 184.7,21.2 209.1,21.2 210.1,46.8 210.3,46.8 222.2,21.2 245.2,21.2 208.5,85.7 
	183.6,85.7 193.5,69.3 "/>
<path fill="#CE2028" d="M269.9,62.5c-5.2,5.3-11.1,6.8-16.3,6.8c-11.6,0-18-8.7-14.4-25.3c3.8-17.7,14.5-24.2,24.9-24.2
	c5.3,0,10.1,1.5,13,5.7l5.4-24.8h23l-14.6,67.2h-21.7L269.9,62.5 M274,37.3c0-2.7-1.4-4.3-4-4.3c-4.8,0-6.3,4.1-7.9,11.5
	c-1.4,6.3-1.9,11.5,3,11.5c2.6,0,3.9-1.1,4.8-2.5c1-1.4,1.9-4.2,2.9-9C273.7,40.4,274,39.2,274,37.3z"/>
<path fill="#CE2028" d="M351.7,52.9c-4,10.6-13.6,16.4-31.5,16.4c-14,0-25.2-6.1-21.1-25c3.5-16.1,16.5-24.5,33.6-24.5
	c18.1,0,24.8,9,21.2,25.7l-0.7,3.2h-32.9L320,50c-1.2,5.4,0.2,7.7,4.8,7.7c2.6,0,5.4-1.5,6.8-4.8H351.7 M334.6,38.8l0.1-0.7
	c1-4.5-0.9-6.8-4.5-6.8c-3.7,0-6.7,2.3-7.7,6.8l-0.1,0.7H334.6z"/>
<path fill="#CE2028" d="M384.5,20.5l-2.3,10.7h0.2c4.3-6.7,10-11.8,17.4-11.8c1.4,0,2.8,0.2,3.7,0.5l-4.1,19c-1-0.5-3-0.7-5.2-0.7
	c-6.5,0-13.2,5.6-14.7,12.6l-3.7,17.2h-23.5l10.3-47.4H384.5"/>
<path d="M112,5.3c-21.8,4-40.3,10.4-52.8,18.5l46.5,10.4l-0.7,3.1L0,13.9h66.1c13.3-5.2,29.1-9.1,46.5-11.3L112,5.3"/>
<path d="M196.9,106.1l7-12.3c-12.7,1.8-26.5,2.8-40.7,2.8c-67.3,0-121.8-21.4-121.8-47.8c0-6.6,3.4-12.9,9.6-18.7l-10.3-2.3
	c-10.8,8.4-17,18.2-17,28.6c0,30.7,53.5,55.7,119.4,55.7C162.3,112.1,180.8,109.9,196.9,106.1"/>
<path fill="#CE2028" d="M406.3,24.5c0-3.3,2.7-6,6-6c3.3,0,6,2.7,6,6c0,3.3-2.7,6-6,6C409,30.4,406.3,27.8,406.3,24.5 M417.6,24.5
	c0-2.9-2.3-5.2-5.2-5.2c-2.9,0-5.3,2.3-5.3,5.2c0,2.9,2.3,5.3,5.3,5.3C415.2,29.7,417.6,27.4,417.6,24.5z M415.3,27.8h-1l-1.9-3.1
	h-1.5v3.1h-0.8v-6.7h2.9c0.6,0,1.1,0,1.6,0.3c0.5,0.3,0.7,0.9,0.7,1.4c0,1.3-0.9,1.8-2.1,1.8L415.3,27.8z M412.2,24.1
	c0.9,0,2.4,0.2,2.4-1.2c0-1-0.9-1.2-1.7-1.2h-1.9v2.4H412.2z"/>
</svg>
