<svg width="15" height="15" viewBox="0 0 15 15" fill="none" xmlns="http://www.w3.org/2000/svg">
<g clip-path="url(#clip0_1433_16225)">
<path d="M3.29086 4.79297H0.246094V14.5025H3.29086V4.79297Z" fill="#050522"/>
<path d="M11.5232 4.58037C11.411 4.56633 11.2917 4.55932 11.1724 4.5523C9.46764 4.48215 8.50651 5.49239 8.16977 5.92735C8.07856 6.04662 8.03647 6.11677 8.03647 6.11677V4.81889H5.125V14.5284H8.03647H8.16977C8.16977 13.5392 8.16977 12.557 8.16977 11.5679C8.16977 11.0347 8.16977 10.5015 8.16977 9.96831C8.16977 9.30885 8.12066 8.60729 8.45039 8.00395C8.73101 7.49883 9.23613 7.24627 9.80439 7.24627C11.4881 7.24627 11.5232 8.76865 11.5232 8.90896C11.5232 8.91598 11.5232 8.92299 11.5232 8.92299V14.5705H14.568V8.23547C14.568 6.06766 13.4665 4.79083 11.5232 4.58037Z" fill="#050522"/>
<path d="M1.76792 3.53584C2.74432 3.53584 3.53586 2.74431 3.53586 1.76792C3.53586 0.791524 2.74432 0 1.76792 0C0.791525 0 0 0.791524 0 1.76792C0 2.74431 0.791525 3.53584 1.76792 3.53584Z" fill="#050522"/>
</g>
<defs>
<clipPath id="clip0_1433_16225">
<rect width="15" height="15" fill="white"/>
</clipPath>
</defs>
</svg>
