<svg width="178" height="44" viewBox="0 0 178 44" fill="none" xmlns="http://www.w3.org/2000/svg">
<path d="M90.7749 18.1558C91.1582 17.3317 91.4993 16.5843 91.8481 15.8446C94.2435 10.7394 96.6467 5.64181 99.0307 0.532753C99.207 0.145645 99.4139 0 99.8509 0C125.496 0.0114983 151.141 0.0114983 176.786 0.0114983C176.939 0.0114983 177.089 0.0114983 177.33 0.0114983C177.234 0.206969 177.173 0.348781 177.092 0.482927C174.793 4.41917 171.884 7.83798 168.377 10.7509C164.808 13.7136 160.822 15.8753 156.338 17.0902C154.314 17.6383 152.256 17.9986 150.16 18.0714C148.922 18.1136 147.684 18.1519 146.442 18.1519C128.121 18.1558 109.797 18.1519 91.4763 18.1519H90.7749V18.1558Z" fill="#052424"/>
<path d="M149.294 25.1009C148.772 25.9441 148.343 26.6991 147.86 27.4158C144.66 32.1646 140.701 36.1277 135.745 39.0482C132.445 40.9914 128.911 42.3214 125.113 42.858C123.622 43.0688 122.104 43.2221 120.602 43.2259C108.728 43.2566 96.854 43.2413 84.9801 43.2413H84.4014C84.501 42.9883 84.5738 42.7813 84.6658 42.582C87.3334 36.8981 90.0087 31.2141 92.6686 25.5263C92.8181 25.2043 92.9906 25.0894 93.3585 25.0894C111.806 25.1009 130.253 25.097 148.7 25.097H149.298L149.294 25.1009Z" fill="#052424"/>
<path d="M36.9788 37.5268V39.7076H35.5952V34.0926C35.6297 34.0696 35.6527 34.0352 35.6757 34.0352C37.0938 34.0582 38.5158 34.0428 39.9339 34.1233C40.5855 34.1616 41.0646 34.6177 41.2524 35.2501C41.4095 35.7752 41.2754 36.285 40.8308 36.6606C40.6851 36.7832 40.5088 36.8752 40.3095 37.0055C40.39 37.0822 40.4436 37.1512 40.5126 37.1895C40.9419 37.4156 41.0914 37.7874 41.1067 38.2474C41.122 38.7264 41.1604 39.2094 41.1872 39.7153H39.6848C39.6848 39.4623 39.6733 39.2209 39.6848 38.9832C39.7384 37.8066 39.5008 37.4425 38.2053 37.5268C37.8144 37.5498 37.4196 37.5268 36.9788 37.5268ZM36.9673 34.9627C36.9673 35.4571 36.952 35.8825 36.9788 36.308C36.9827 36.4038 37.1207 36.5648 37.1973 36.5686C37.8565 36.5878 38.5158 36.6069 39.1712 36.5609C39.6541 36.5264 39.8802 36.216 39.8726 35.7599C39.8611 35.3038 39.6119 34.9933 39.1443 34.9742C38.4429 34.9435 37.7416 34.9665 36.9673 34.9665V34.9627Z" fill="#052424"/>
<path d="M74.3549 22.6864C74.3549 22.3722 74.3549 22.0579 74.3549 21.7436C74.3549 20.8851 74.3626 20.0303 74.3511 19.1718C74.3473 18.8882 74.4163 18.754 74.7344 18.7655C75.8842 18.7962 75.6734 18.6199 75.6811 19.7046C75.6964 21.0959 75.6811 22.4871 75.6811 23.8823V24.5032C75.225 24.5032 74.7957 24.5377 74.3818 24.484C74.2285 24.4648 74.0713 24.2617 73.9602 24.1122C73.1706 23.0237 72.3926 21.9276 71.6068 20.8352C71.5302 20.7279 71.4344 20.6321 71.2581 20.4213V24.4725H69.9588C69.9434 24.3882 69.9166 24.3154 69.9166 24.2425C69.9166 22.5446 69.9166 20.8467 69.9089 19.1488C69.9089 18.8844 69.9779 18.7349 70.2692 18.7694C70.2999 18.7694 70.3305 18.7732 70.3612 18.7694C71.1124 18.6314 71.5915 18.9189 71.994 19.5819C72.5995 20.5708 73.3201 21.4868 73.9985 22.4297C74.0675 22.5293 74.1518 22.6136 74.2285 22.7094C74.2668 22.7018 74.3089 22.6941 74.3473 22.6864H74.3549Z" fill="#052424"/>
<path d="M29.807 35.7094C29.3624 35.7094 28.983 35.7209 28.6074 35.7018C28.5077 35.6979 28.3851 35.6059 28.3238 35.5216C27.7834 34.7551 27.0015 34.6861 26.1889 34.8279C25.3572 34.9735 24.8091 35.5024 24.6827 36.3457C24.5332 37.3192 24.6405 38.1585 25.43 38.63C26.2541 39.1244 27.3771 39.1052 28.0516 38.5265C28.2854 38.3234 28.4349 38.0206 28.6227 37.7638C28.5921 37.7178 28.5576 37.6718 28.5269 37.6296H26.9325V36.8017H29.8339V39.6916C29.0098 39.845 28.9715 39.8258 28.7415 39.0861C28.5959 39.1819 28.4618 39.2624 28.3314 39.3544C27.128 40.2014 25.2077 40.0941 24.1077 39.1167C22.4328 37.622 23.0192 34.8509 25.1771 34.1112C26.1851 33.7662 27.2199 33.7777 28.228 34.1188C28.9638 34.368 29.5388 34.8241 29.8032 35.7171L29.807 35.7094Z" fill="#052424"/>
<path d="M14.974 21.8315C15.8555 22.142 15.844 22.8165 15.8402 23.5103C15.8402 23.8514 15.9398 24.1887 16.0011 24.5758C15.5604 24.5758 15.1081 24.5911 14.6558 24.5604C14.5677 24.5566 14.4335 24.3765 14.4259 24.2653C14.3952 23.8859 14.4259 23.5026 14.4105 23.1193C14.3952 22.6671 14.0924 22.3183 13.6517 22.2953C13.1036 22.2685 12.5478 22.2685 11.9997 22.2991C11.8924 22.3068 11.7238 22.5138 11.7161 22.6364C11.6816 23.1538 11.6931 23.6751 11.7046 24.1925C11.7123 24.4608 11.6318 24.5911 11.3405 24.5719C11.0377 24.5528 10.7349 24.5681 10.3862 24.5681C10.3708 24.3841 10.3517 24.2385 10.3517 24.0929C10.3517 22.4716 10.3593 20.8542 10.344 19.2329C10.344 18.8918 10.413 18.7423 10.8001 18.7577C12.0342 18.8075 13.2722 18.796 14.5102 18.8573C15.2078 18.8918 15.7175 19.2942 15.982 19.9381C16.2349 20.5629 15.9628 21.2336 15.3726 21.5824C15.2729 21.6437 15.1733 21.7089 14.9855 21.8277L14.974 21.8315ZM12.8928 19.6814C11.6586 19.7158 11.6663 19.7158 11.6893 20.9538C11.6931 21.2796 11.7851 21.4368 12.1339 21.4138C12.7241 21.3793 13.3182 21.3754 13.9085 21.3333C14.2764 21.3064 14.5409 21.1148 14.5907 20.72C14.6558 20.2026 14.5102 19.9075 14.0656 19.804C13.6862 19.7158 13.2837 19.7197 12.8928 19.6814Z" fill="#052424"/>
<path d="M53.5275 36.8861C53.5275 38.6568 52.4083 39.8028 50.538 39.914C49.5644 39.9715 48.6101 39.891 47.786 39.2778C46.824 38.561 46.4331 37.346 46.755 36.0314C47.0272 34.9161 47.9202 34.1112 49.0968 33.9272C50.2083 33.7509 51.3007 33.7548 52.2819 34.391C53.1826 34.9736 53.5275 35.7171 53.5275 36.8861ZM52.1055 36.8784C52.1055 35.5485 51.3735 34.7781 50.1049 34.7819C48.8247 34.7819 48.0888 35.5408 48.085 36.8631C48.085 38.2314 48.7979 38.9788 50.1087 38.975C51.385 38.975 52.1017 38.2199 52.1017 36.8823L52.1055 36.8784Z" fill="#052424"/>
<path d="M41.7265 24.5066C41.2053 24.5066 40.684 24.4951 40.1666 24.5105C39.8792 24.5181 39.7565 24.4415 39.7603 24.1272C39.7718 22.46 39.768 20.7965 39.7603 19.1293C39.7603 18.8878 39.8178 18.7575 40.0938 18.769C41.2398 18.8035 42.3858 18.7843 43.5279 18.861C44.8541 18.9492 45.7433 19.9533 45.7969 21.2871C45.8391 22.3833 45.6168 23.3798 44.6471 24.0161C44.2562 24.2728 43.7541 24.407 43.2865 24.4798C42.7767 24.5565 42.2478 24.499 41.7304 24.499C41.7304 24.5028 41.7304 24.5066 41.7304 24.5105L41.7265 24.5066ZM41.1056 21.6512C41.1056 22.184 41.1133 22.7206 41.1056 23.2533C41.098 23.5255 41.1976 23.6404 41.4774 23.6289C41.8722 23.6136 42.2708 23.6366 42.6694 23.6213C43.5509 23.583 44.1373 23.1115 44.2868 22.2338C44.3635 21.7816 44.3443 21.2948 44.2792 20.8387C44.1948 20.2408 43.8154 19.8269 43.1983 19.7655C42.5774 19.7042 41.9488 19.7195 41.3241 19.731C41.2513 19.731 41.1248 19.9342 41.121 20.0492C41.098 20.5819 41.1095 21.1185 41.1095 21.6512H41.1056Z" fill="#052424"/>
<path d="M34.0842 18.8035V19.6966C33.9309 19.7042 33.77 19.7196 33.609 19.7196C32.6278 19.7196 31.6504 19.7272 30.6693 19.7196C30.3933 19.7196 30.2438 19.7771 30.2515 20.099C30.2783 21.2948 30.125 21.0457 31.1713 21.061C32.0261 21.0764 32.8846 21.061 33.7968 21.061C33.8083 21.245 33.8121 21.406 33.8313 21.5631C33.8773 21.8966 33.7508 22.0192 33.402 22.0116C32.5013 21.9886 31.5968 22.0039 30.6923 22.0039C30.5734 22.0039 30.4508 22.0192 30.2936 22.0269V23.5332H34.2605V24.4722C34.1111 24.4837 33.9654 24.499 33.8159 24.499C32.3327 24.499 30.8456 24.4875 29.3623 24.5067C28.9752 24.5105 28.8295 24.4262 28.8372 24.0046C28.864 22.414 28.8564 20.8234 28.8372 19.2328C28.8372 18.8879 28.9062 18.746 29.2895 18.7537C30.7421 18.7767 32.1985 18.7614 33.6511 18.7652C33.7853 18.7652 33.9194 18.7844 34.0804 18.7959L34.0842 18.8035Z" fill="#052424"/>
<path d="M75.735 3.61799V4.4842H73.6577C73.4124 4.4842 73.1671 4.4842 72.9218 4.4842C71.7873 4.4842 71.7145 4.58002 71.9751 5.82183C72.8145 5.82183 73.6692 5.82183 74.52 5.82183C74.5814 5.82183 74.6427 5.82183 74.704 5.82183C75.2815 5.82183 75.5204 6.13611 75.4207 6.76469C75.1524 6.76469 74.865 6.76469 74.5814 6.76469C73.8455 6.76469 73.1096 6.76469 72.3775 6.76469C72.2549 6.76469 72.0326 6.76852 72.0288 6.79151C71.9713 7.23228 71.9176 7.68071 71.9329 8.12531C71.9329 8.20963 72.2166 8.35145 72.3737 8.35528C73.3856 8.37444 74.3936 8.36678 75.4054 8.36678C75.5702 8.36678 75.735 8.38211 75.9228 8.38977V9.32497H75.4016C73.9451 9.32497 72.4925 9.31347 71.0361 9.33263C70.6336 9.3403 70.4765 9.25598 70.4842 8.80754C70.5148 7.23228 70.5071 5.65702 70.4842 4.08176C70.4803 3.71381 70.5685 3.57583 70.9632 3.57967C72.4197 3.60266 73.8723 3.58733 75.3288 3.59117C75.4476 3.59117 75.5702 3.6065 75.735 3.61799Z" fill="#052424"/>
<path d="M60.401 5.80641C61.34 5.80641 62.1947 5.81791 63.0494 5.79108C63.1414 5.79108 63.2986 5.56112 63.3062 5.43464C63.333 4.84439 63.3177 4.25031 63.3177 3.62558H64.7013V9.29805H63.3177C63.3177 8.55833 63.2986 7.84544 63.3254 7.13255C63.3407 6.75694 63.2027 6.66112 62.8501 6.67261C62.0567 6.69561 61.2634 6.68028 60.401 6.68028C60.401 7.42383 60.378 8.1214 60.4087 8.81896C60.424 9.2099 60.3282 9.35554 59.9066 9.34404C58.9829 9.31721 58.9829 9.34021 58.9829 8.42035C58.9829 6.96774 58.9944 5.51129 58.9752 4.05868C58.9714 3.70223 59.071 3.58341 59.439 3.58725C60.4048 3.59875 60.4048 3.57958 60.4048 4.56077V5.81024L60.401 5.80641Z" fill="#052424"/>
<path d="M57.5415 24.5028C56.9244 24.5028 56.407 24.5296 55.8934 24.4874C55.7286 24.4759 55.5561 24.3035 55.4296 24.1655C54.8777 23.5522 54.3373 22.9237 53.7969 22.3028C53.7087 22.1993 53.632 22.0805 53.5592 21.9808C52.969 22.2913 52.578 22.6132 52.6777 23.2916C52.7314 23.6634 52.6892 24.0505 52.6892 24.4683H51.3132C51.3017 24.3264 51.2826 24.1923 51.2826 24.062C51.2826 22.4561 51.2902 20.8463 51.2749 19.2404C51.2749 18.8916 51.3477 18.7268 51.731 18.7651C52.03 18.7958 52.3327 18.7728 52.7007 18.7728V21.2372C53.3216 20.7198 53.8275 20.2944 54.3373 19.8651C54.3833 19.8268 54.4331 19.7885 54.4714 19.7425C55.215 18.8954 56.1195 18.5122 57.2923 18.8609C56.3763 19.6007 55.4526 20.3519 54.4791 21.1414C55.4948 22.2568 56.4798 23.3376 57.5415 24.5066V24.5028Z" fill="#052424"/>
<path d="M59.0162 34.0344H60.396C60.4037 34.2298 60.419 34.41 60.419 34.5863C60.419 35.533 60.4305 36.4835 60.419 37.4302C60.4037 38.7793 61.0783 39.0668 62.2358 38.9479C62.9678 38.8751 63.2783 38.4612 63.3013 37.595C63.3243 36.587 63.3089 35.5751 63.3128 34.5671C63.3128 34.4023 63.3128 34.2375 63.3128 34.042H64.7309C64.7309 34.3601 64.7309 34.6783 64.7309 34.9925C64.7309 35.8664 64.7309 36.7364 64.7309 37.6103C64.7309 38.856 64.2173 39.5114 63.01 39.795C62.1629 39.9943 61.3082 39.9713 60.4727 39.7298C59.6716 39.4999 59.0776 38.9901 59.0354 38.1354C58.9703 36.7824 59.0162 35.4218 59.0162 34.0305V34.0344Z" fill="#052424"/>
<path d="M71.9139 39.7224H70.5303V34.0921C70.5571 34.0729 70.5763 34.0346 70.5993 34.0346C71.8641 34.0538 73.1404 33.9848 74.3937 34.1189C75.7926 34.2684 76.1912 35.4681 75.7735 36.5987C75.4899 37.3653 74.7961 37.5607 74.0717 37.6182C73.539 37.6604 73.0024 37.6642 72.4696 37.6336C72.0135 37.6067 71.8794 37.7869 71.9101 38.2161C71.9407 38.6991 71.9177 39.1897 71.9177 39.7224H71.9139ZM72.9564 34.9621C72.2614 34.957 71.9139 35.2994 71.9139 35.9893C71.9139 36.158 71.8871 36.3343 71.9292 36.4914C71.9561 36.5949 72.0864 36.7482 72.1669 36.7482C72.7303 36.7482 73.3014 36.752 73.8533 36.6639C74.3132 36.5911 74.5547 36.1771 74.5048 35.7478C74.455 35.2918 74.1676 35.0081 73.6885 34.966C73.447 34.943 73.1979 34.966 72.9526 34.966L72.9564 34.9621Z" fill="#052424"/>
<path d="M4.58781 21.1529V22.0843H1.39896V24.4759H0V18.8035H5.03241V19.7195C4.03589 19.7195 3.05854 19.7195 2.08119 19.7195C1.6187 19.7195 1.38746 19.9495 1.38746 20.4094C1.38746 20.4554 1.38746 20.5014 1.38746 20.5474C1.38746 20.9485 1.5842 21.1504 1.9777 21.1529C2.83241 21.1529 3.68711 21.1529 4.59164 21.1529H4.58781Z" fill="#052424"/>
<path d="M53.766 3.59465V4.48385C53.2256 4.48385 52.7082 4.51068 52.1946 4.47619C51.7385 4.44552 51.5775 4.58734 51.589 5.0626C51.6197 6.33124 51.589 7.60371 51.6082 8.87235C51.612 9.23647 51.5047 9.34378 51.1406 9.33612C50.1747 9.32079 50.1747 9.33612 50.1747 8.37026C50.1747 7.22427 50.1632 6.07444 50.1824 4.92845C50.1862 4.58734 50.0751 4.46469 49.7378 4.48002C49.2472 4.49918 48.7566 4.47619 48.266 4.48385C47.9134 4.49152 47.9747 4.24622 47.9786 4.03925C47.9786 3.83612 47.9096 3.59082 48.2622 3.59082C50.0828 3.59465 51.9033 3.59082 53.7737 3.59082L53.766 3.59465Z" fill="#052424"/>
<path d="M23.0581 24.4833H21.709V18.8147H23.0581V24.4833Z" fill="#052424"/>
<path d="M62.7735 24.5065C62.762 24.288 62.7467 24.1385 62.7467 23.9891C62.7467 22.4138 62.7543 20.8385 62.739 19.2633C62.739 18.903 62.808 18.7497 63.2143 18.7574C64.1648 18.7765 64.1686 18.7574 64.1686 19.6964C64.1686 21.1337 64.1533 22.5709 64.1801 24.0082C64.1878 24.426 64.0498 24.5525 63.655 24.5103C63.3829 24.4835 63.107 24.5065 62.7735 24.5065Z" fill="#052424"/>
</svg>
