<svg width="247" height="86" viewBox="0 0 247 86" fill="none" xmlns="http://www.w3.org/2000/svg">
<g clip-path="url(#clip0_3327_11100)">
<mask id="mask0_3327_11100" style="mask-type:luminance" maskUnits="userSpaceOnUse" x="0" y="0" width="246" height="86">
<path d="M0 0H245.214V85.5432H0V0Z" fill="white"/>
</mask>
<g mask="url(#mask0_3327_11100)">
<path d="M115.198 8.57566L114.874 12.5923H113.251C110.655 12.5923 109.303 14.7095 109.303 16.7178V25.7815H104.704V8.57566H109.084L109.192 10.7473C110.113 9.28139 111.734 8.57566 113.681 8.57566H115.198ZM83.126 25.7271H78.4768V16.6634C78.4768 14.7639 78.3121 12.3746 75.6621 12.3746C73.1206 12.3746 72.0939 14.2215 72.0939 16.3912V25.7271H67.4427V8.57566H71.7142L71.8227 10.7473C72.7428 9.28139 74.4727 8.14211 76.96 8.14211C81.6111 8.14211 83.0717 11.5055 83.0717 14.9817V25.7271H83.126ZM65.4416 21.7124L65.1162 25.6201C63.981 25.9448 63.0066 25.9993 61.8172 25.9993C57.4373 25.9993 56.1936 23.9909 56.1936 19.9743V3.68998H60.8428V8.52122H65.4416L65.1162 12.5379H60.8467V19.6496C60.8467 21.2769 61.2787 22.1459 62.9563 22.1459C63.6575 22.1459 64.4673 22.0915 65.4416 21.7124ZM54.6788 8.57566L54.301 12.5923H53.0554C50.4596 12.5923 49.1617 14.7095 49.1617 16.7178V25.7815H44.5126V8.57566H48.8905L48.999 10.7473C49.9192 9.28139 51.5425 8.57566 53.5436 8.57566H54.6788ZM23.6338 23.8276C20.4976 25.5113 17.3613 26.4872 13.1964 26.3803C5.57172 26.1626 0.0546875 21.3838 0.0546875 13.298C0.0546875 5.21226 5.62596 0.108827 13.2506 -4.56539e-05C17.0901 -0.108919 20.5537 0.923432 23.2561 3.31086L20.0113 6.62177C18.3337 5.15588 15.9007 4.34127 12.9271 4.45014C8.16752 4.66789 5.24628 8.19655 5.19204 13.0258C5.1378 18.2362 8.33024 21.8193 13.3049 21.9826C15.6295 22.037 17.307 21.7104 18.7677 21.0591V15.7399H13.5761L13.8996 11.3441H23.6358L23.6338 23.8276ZM97.9433 15.1975C97.7826 13.0258 96.1611 11.6708 93.9431 11.7233C91.6708 11.8321 90.2121 13.298 89.8867 15.1975H97.9433ZM102.542 18.7806H89.8344C90.2102 20.9522 91.942 22.3092 94.0516 22.3617C96.1611 22.4142 97.2963 21.7649 98.8112 20.2465L101.839 22.5795C99.6752 25.2391 97.1336 26.2151 94.1601 26.2151C89.0208 26.2151 85.1271 22.5795 85.1271 17.2058C85.1271 11.8321 88.9665 8.19655 93.9412 8.19655C99.4601 8.19655 102.434 11.5599 102.434 17.478V18.7806H102.542ZM37.1552 18.2362H36.5063C34.3424 18.2362 30.4488 18.3451 30.503 20.6275C30.503 23.8821 37.1552 22.8517 37.1552 18.9439V18.2362ZM41.6436 14.4917V25.729H37.5891L37.4807 24.0454C36.237 25.6201 34.1817 26.1626 32.1263 26.1626C28.9881 26.1626 26.0146 24.5878 25.9604 20.9522C25.8519 15.2519 32.3414 14.8184 36.452 14.8184H37.2637V14.6551C37.2637 12.7556 36.02 11.7233 33.6935 11.7233C32.0179 11.7233 30.3422 12.3746 29.1509 13.5702L26.5008 10.8562C28.9358 8.90228 31.4212 8.14211 34.1274 8.14211C39.2648 8.14211 41.6436 10.584 41.6436 14.4917ZM112.98 23.6118V22.7953H113.522C113.793 22.7953 114.117 22.8516 114.117 23.1763C114.117 23.6118 113.791 23.6118 113.468 23.6118H112.98ZM112.98 23.9365H113.468L114.171 25.0758H114.603L113.846 23.8821C114.225 23.8276 114.549 23.6099 114.549 23.1238C114.549 22.5795 114.225 22.3617 113.629 22.3617H112.602V25.0213H112.98V23.9365ZM113.468 26.0537C114.711 26.0537 115.792 25.0758 115.792 23.7207C115.792 22.4181 114.711 21.4402 113.468 21.4402C112.224 21.4402 111.143 22.4162 111.143 23.7187C111.087 25.0758 112.17 26.0517 113.468 26.0517M111.573 23.7712C111.573 22.6864 112.387 21.8718 113.468 21.8718C114.494 21.8718 115.36 22.6864 115.36 23.7712C115.36 24.9125 114.549 25.7251 113.468 25.7251C112.385 25.6726 111.573 24.858 111.573 23.7712ZM21.255 55.5253V55.6905C21.255 62.2035 16.3869 64.7542 10.5464 64.7542H5.57172V77.2377H1.89305V46.5704H10.6006C16.4411 46.5704 21.255 49.1756 21.255 55.5272M17.5783 55.7469V55.5836C17.5783 51.2403 14.9825 49.6131 10.8718 49.6131H5.62596V61.8807H10.8176C15.1975 61.8244 17.5783 59.7091 17.5783 55.7469ZM22.2836 66.329V66.0024C22.2836 59.2172 26.6093 54.4949 32.7753 54.4949C37.9669 54.4949 42.835 57.6444 42.835 65.6777V66.817H26.0146C26.1773 71.9184 28.6104 74.7414 33.2073 74.7414C36.669 74.7414 38.6701 73.4388 39.1563 70.8336H42.7265C41.9691 75.3382 38.2381 77.7276 33.153 77.7276C26.8263 77.6732 22.2817 73.221 22.2817 66.329M32.8276 57.4267C29.2051 57.4267 26.7701 59.923 26.1754 63.9396H39.2628C38.8851 59.2736 36.5043 57.4267 32.8276 57.4267ZM45.9712 66.329V66.0024C45.9712 59.2172 50.2969 54.4949 56.4629 54.4949C61.6545 54.4949 66.5226 57.6444 66.5226 65.6777V66.817H49.6499C49.8107 71.9184 52.2457 74.7414 56.8426 74.7414C60.3024 74.7414 62.3054 73.4388 62.7897 70.8336H66.3599C65.6044 75.3382 61.8715 77.7276 56.7883 77.7276C50.4596 77.6732 45.9712 73.221 45.9712 66.329ZM56.4629 57.4267C52.8404 57.4267 50.4054 59.923 49.7564 63.9396H62.8458C62.5746 59.2736 60.1416 57.4267 56.4629 57.4267ZM74.5812 58.8381C75.9875 56.2874 77.9344 54.5493 81.9366 54.386V57.7533C77.4482 57.9691 74.5812 59.3805 74.5812 64.9175V77.2377H71.011V54.8215H74.5812V58.8381Z" fill="#002856"/>
<path d="M97.5122 77.2922H93.7773V46.5705H97.5103L97.5122 77.2922ZM106.272 58.4027C107.299 56.2875 109.788 54.4424 113.467 54.4424C118.116 54.4424 121.363 56.9932 121.363 63.5061V77.2922H117.792V63.2359C117.792 59.2717 116.117 57.5356 112.547 57.5356C109.248 57.5356 106.272 59.6528 106.272 63.6694V77.2922H102.704V54.8216H106.272V58.4027ZM124.23 70.3982H127.689C127.96 73.0597 129.367 74.7415 132.989 74.7415C136.343 74.7415 137.857 73.6022 137.857 71.1584C137.857 68.7165 136.128 68.0108 132.612 67.3595C126.771 66.2746 124.824 64.6454 124.824 60.7376C124.824 56.5577 128.881 54.4424 132.395 54.4424C136.397 54.4424 139.911 56.0697 140.507 60.9554H137.1C136.614 58.5116 135.207 57.4267 132.395 57.4267C129.799 57.4267 128.177 58.7293 128.177 60.6288C128.177 62.6371 129.313 63.4517 133.423 64.2119C138.072 65.0809 141.319 66.1113 141.319 70.8881C141.319 74.9592 138.561 77.7277 133.098 77.7277C127.689 77.6732 124.446 74.9592 124.23 70.3982ZM144.618 47.7662C144.618 46.4636 145.645 45.3768 146.997 45.3768C148.349 45.3768 149.378 46.4072 149.378 47.7098C149.378 49.0124 148.351 50.0992 146.997 50.0992C145.699 50.0992 144.618 49.0688 144.618 47.7662ZM148.835 77.2922H145.267V54.8216H148.837L148.835 77.2922ZM153.271 78.5948H156.894C157.436 81.2 159.544 82.5026 163.383 82.5026C167.765 82.5026 170.578 80.3873 170.578 75.5561V72.2996C169.762 73.5775 168.643 74.6327 167.322 75.3712C166.001 76.1097 164.518 76.5085 163.006 76.532C157.111 76.532 152.785 72.0818 152.785 65.8936V65.5689C152.785 59.4895 157.057 54.388 163.223 54.388C166.954 54.388 169.28 56.1766 170.524 58.4046V54.8216H174.04V75.7738C173.986 82.2867 169.604 85.4888 163.331 85.4888C156.785 85.5432 153.866 82.3956 153.271 78.5948ZM170.687 65.6778V65.3511C170.687 60.3041 167.928 57.3723 163.6 57.3723C159.166 57.3723 156.516 60.6832 156.516 65.4056V65.7322C156.516 70.6159 159.654 73.5477 163.44 73.5477C167.548 73.6022 170.687 70.6704 170.687 65.6778ZM183.288 58.4027C184.314 56.2875 186.802 54.4424 190.48 54.4424C195.077 54.4424 198.376 56.9932 198.376 63.5061V77.2922H194.806V63.2359C194.806 59.2717 193.13 57.5356 189.56 57.5356C186.261 57.5356 183.288 59.6528 183.288 63.6694V77.2922H179.718V44.0742H183.288V58.4027ZM204.108 71.7008V57.8603H200.918V54.8216H204.108V49.7201H207.679V54.8216H212.924V57.8603H207.679V71.3761C207.679 73.5477 208.653 74.6326 210.437 74.6326C211.357 74.6326 212.33 74.4712 213.196 74.1465V77.1308C212.218 77.4534 211.195 77.6174 210.166 77.6169C206.057 77.6169 204.108 75.1731 204.108 71.7008ZM214.925 70.3982H218.387C218.658 73.0597 220.065 74.7415 223.633 74.7415C227.04 74.7415 228.501 73.6022 228.501 71.1584C228.501 68.7165 226.769 68.0108 223.255 67.3595C217.413 66.2746 215.466 64.6454 215.466 60.7376C215.466 56.5577 219.522 54.4424 223.038 54.4424C227.041 54.4424 230.556 56.0697 231.151 60.9554H227.744C227.203 58.5116 225.851 57.4267 223.038 57.4267C220.443 57.4267 218.819 58.7293 218.819 60.6288C218.819 62.6371 219.956 63.4517 224.067 64.2119C228.718 65.0809 231.963 66.1113 231.963 70.8881C231.963 74.9592 229.204 77.7277 223.742 77.7277C218.333 77.6732 215.142 74.9592 214.925 70.3982Z" fill="#40B3E1"/>
<path d="M234.938 72.4629H238.994V73.2755H237.479V77.891H236.452V73.2755H234.938V72.4629ZM242.456 76.2074L243.862 72.5154H245.214V77.9435H244.186V73.8199L242.564 77.9454H242.239L240.617 73.8199V77.9454H239.697V72.5173H241.049L242.456 76.2074Z" fill="#002856"/>
</g>
</g>
<defs>
<clipPath id="clip0_3327_11100">
<rect width="246.02" height="85.5432" fill="white"/>
</clipPath>
</defs>
</svg>
