<svg width="103" height="50" viewBox="0 0 103 50" fill="none" xmlns="http://www.w3.org/2000/svg">
<path d="M60.1724 0.591797C59.3918 1.65097 58.6077 2.71013 57.8271 3.7693C57.4522 4.27481 57.074 4.77689 56.6372 5.36149H69.7358C65.929 10.4132 62.1979 15.3686 58.4289 20.3687C58.6318 20.4443 58.79 20.5062 58.9481 20.5647C63.5218 22.2222 66.2076 25.5373 67.081 30.2348C68.0818 35.6338 66.72 40.4447 62.8994 44.451C60.5128 46.9511 57.5382 48.4366 54.1613 49.0866C49.5325 49.9773 45.1583 49.3376 41.1555 46.7344C38.1706 44.7949 36.0213 42.1263 34.405 38.8904C37.1905 37.6008 39.9553 36.3215 42.5895 35.1042C43.4664 36.1668 44.2023 37.2569 45.1342 38.1407C47.1253 40.0355 49.5222 40.6855 52.2114 39.9977C55.609 39.1277 57.6551 35.9605 57.2081 32.4666C56.7438 28.8283 54.2403 26.8681 50.9906 26.2973C50.4989 26.2113 49.9899 26.1872 49.4878 26.1838C47.8303 26.17 46.1728 26.1769 44.3811 26.1769C47.4005 22.1706 50.3579 18.2435 53.3841 14.2269C52.5037 14.2269 51.7128 14.275 50.9287 14.2131C50.2238 14.1581 49.8042 14.3919 49.3709 14.9765C46.692 18.6011 43.9616 22.1844 41.2311 25.7711C41.097 25.9465 40.8185 26.1047 40.6018 26.1047C37.7201 26.1219 34.8383 26.1116 31.9565 26.1081C31.8293 26.1081 31.7021 26.0944 31.4751 26.0772C34.4497 22.1294 37.3762 18.2435 40.3886 14.2441H36.6678V5.37869C36.8638 5.37869 37.0529 5.37869 37.2386 5.37869C40.3817 5.37869 43.5249 5.37525 46.6645 5.38557C46.9568 5.38557 47.1322 5.30303 47.3076 5.06575C48.3118 3.70396 49.3365 2.35937 50.351 1.00446C50.4473 0.877222 50.5126 0.729351 50.5917 0.591797C53.783 0.591797 56.9742 0.591797 60.1655 0.591797L60.1724 0.591797Z" fill="#052424"/>
<path d="M25.1655 24.3751C25.6642 24.6193 26.1009 24.805 26.5067 25.0354C29.1924 26.5622 30.7537 28.9213 31.4243 31.8753C32.2118 35.3485 31.9332 38.7289 30.2138 41.9064C28.7626 44.5887 26.4998 46.3426 23.704 47.4533C21.4103 48.3646 19.0134 48.7566 16.5546 48.767C11.2622 48.7841 5.97326 48.7738 0.680859 48.7738C0.00340331 48.7738 0.0034033 48.7704 0.0034033 48.1101C0.0034033 34.1724 0.0034033 20.2347 0.0034033 6.30049C0.0034033 5.24476 -0.103201 5.42014 0.876873 5.42014C5.37146 5.41326 9.86605 5.38919 14.3572 5.42702C16.871 5.44765 19.347 5.78466 21.7026 6.73722C25.5197 8.28127 27.8857 11.022 28.4668 15.1555C28.8279 17.7037 28.5356 20.166 27.0603 22.3565C26.6408 22.979 26.0528 23.4948 25.5404 24.0519C25.4441 24.155 25.3237 24.2376 25.1587 24.3786L25.1655 24.3751ZM9.78008 29.9289V40.3727C9.86605 40.3968 9.91076 40.4243 9.95546 40.4243C12.4555 40.3796 14.9693 40.4759 17.4556 40.242C20.0657 39.9979 21.9536 38.1993 22.1325 35.4723C22.3078 32.8038 20.9633 30.7542 18.3532 30.1799C15.5333 29.5644 12.6618 29.9186 9.78008 29.9254V29.9289ZM9.65284 17.9617C9.65284 19.2306 9.66316 20.4995 9.64597 21.7685C9.64253 22.1055 9.74569 22.2258 10.0896 22.2224C11.7162 22.2086 13.3462 22.2568 14.9728 22.1983C16.166 22.1536 17.3456 21.9301 18.2844 21.0979C19.488 20.0284 19.8663 17.5696 19.0994 15.9671C18.4322 14.5813 17.1908 13.9967 15.7912 13.8866C13.8654 13.7387 11.9259 13.7938 9.98985 13.7491C9.63221 13.7422 9.65284 13.9657 9.65284 14.1995C9.65284 15.4513 9.65284 16.7065 9.65284 17.9582V17.9617Z" fill="#052424"/>
<path d="M103 5.41284C102.522 6.39979 102.065 7.34548 101.604 8.29117C97.2674 17.1944 92.931 26.0941 88.5946 34.9973C86.4385 39.4266 84.2754 43.8524 82.1296 48.2885C81.937 48.6874 81.7204 48.8525 81.2561 48.8491C78.1302 48.825 75.0043 48.8353 71.8783 48.8353C71.7339 48.8353 71.5895 48.8353 71.3281 48.8353C77.1501 37.2739 82.9343 25.7881 88.7563 14.2232H71.9196V5.41284H103Z" fill="#052424"/>
</svg>
