<svg width="240" height="43" viewBox="0 0 240 43" fill="none" xmlns="http://www.w3.org/2000/svg">
<g clip-path="url(#clip0_220_55)">
<path d="M139.018 15.6661C140.245 12.9828 141.855 10.9238 144.72 9.88929C146.742 9.07268 150.266 9.56287 150.622 12.2389C150.891 15.4646 149.536 19.2863 148.633 22.4059C146.839 28.6065 149.367 26.033 150.761 26.7405C151.493 28.5999 147.1 29.0982 145.981 28.8796C144.652 28.6196 144.474 28.5446 143.668 27.4906L143.665 27.4679C143.222 23.8935 144.315 21.9892 145.25 18.5905C145.607 17.103 146.511 15.0298 145.862 13.5589C145.462 12.6497 143.619 12.8783 142.979 13.352C138.664 16.5385 137.527 23.6054 136.234 28.442C135.465 28.6742 132.968 28.5659 132.102 28.5447C132.322 25.2606 133.874 21.4072 134.423 18.1028C134.622 16.9044 136.129 12.42 133.283 12.9575C128.643 13.834 127.248 21.0714 126.104 24.8989C125.843 25.7725 125.608 27.708 125.085 28.3855C124.482 28.7399 121.86 28.5561 120.998 28.5295C120.933 26.8164 121.82 24.007 122.234 22.2299C122.698 20.1797 123.139 18.1241 123.554 16.0637C123.785 14.9171 124.029 14.0104 123.99 12.8254C123.935 11.129 121.552 11.5278 121.446 10.3693L121.658 10.1203C122.486 9.92981 126.754 10.0421 128.122 9.94092C128.208 12.9093 127.823 13.5045 127.632 16.1787C129.354 12.3312 131.296 10.3037 135.455 9.5176C135.554 9.50745 135.655 9.50252 135.755 9.50282C139.527 9.51782 139.07 13.0061 139.018 15.6661Z" fill="#007BC0"/>
<path d="M176.91 9.5215C176.969 9.51146 177.027 9.50374 177.086 9.49836C178.593 9.35921 180.874 9.92241 182.082 10.9235C183.385 12.0148 184.199 13.5799 184.345 15.2733C184.988 22.113 180.174 28.2619 173.247 28.9129C171.388 28.9445 169.894 28.7774 168.296 27.6915C164.361 25.0096 165.395 18.3838 167.77 14.9798C170.383 11.2369 172.617 10.2927 176.91 9.5215ZM171.597 26.3713C172.224 26.6627 172.816 26.9894 173.51 26.9963C175.486 26.4519 176.726 25.452 177.721 23.6404C179.399 20.5845 180.831 14.7959 178.204 11.9398C177.889 11.8372 177.031 11.5385 176.746 11.5078C175.696 11.6932 175.286 11.8225 174.406 12.4701C171.176 14.8473 169.005 23.1185 171.597 26.3713Z" fill="#007BC0"/>
<path d="M111.214 9.5198C111.256 9.51243 111.299 9.50643 111.342 9.50182C115.479 9.02645 118.954 12.5356 118.777 16.476C118.487 22.9566 113.907 28.2653 107.543 28.9117C98.9825 29.4755 98.234 20.2833 102.163 14.7906C104.712 11.2261 107.005 10.2463 111.214 9.5198ZM108.01 26.9749C108.947 26.5856 109.877 26.2016 110.61 25.4577C113.247 22.7798 115.363 14.7329 112.243 11.8242C111.824 11.7109 111.29 11.5458 110.866 11.5155C105.849 12.4196 104.294 20.2287 104.962 24.4589C105.232 26.1685 106.287 27.0082 108.01 26.9749Z" fill="#007BC0"/>
<path d="M29.6921 13.3784L29.436 12.9007C28.9108 12.8803 28.7887 13.9396 28.6692 14.3763C27.7767 17.6382 25.3342 18.1406 22.6749 16.4131C19.6117 14.4231 20.0538 11.7859 17.9928 9.29383C16.5068 7.48478 14.3637 6.33973 12.0344 6.11023C7.34281 5.67411 4.33891 7.72924 1.66142 11.4923C1.06003 12.3375 1.2577 12.9214 0.684514 13.3988L0.506936 13.3556C0.486054 13.3148 0.467929 13.2726 0.452679 13.2292C0.104723 12.2529 1.02248 9.00869 1.49678 8.07149C7.2083 -3.21434 23.1967 -1.74118 28.2909 9.20242C28.8182 10.3351 28.6859 11.4063 29.0341 12.3867C29.2859 12.2388 29.359 11.9248 29.4965 11.6183C29.7106 12.2219 29.8733 12.726 29.6921 13.3784Z" fill="#2659A6"/>
<path d="M7.6655 7.53859C12.6 6.986 12.6807 12.2277 10.8724 15.402C10.1273 16.5552 9.10432 17.4414 8.51033 18.7091C5.45075 25.2389 10.4946 31.7613 17.1007 32.7027C18.3028 32.874 19.7428 32.7599 21.019 32.8594C19.3577 33.5488 19.1085 33.8808 17.252 34.3063C14.0459 35.2682 10.0604 34.253 7.27774 32.5376C3.95304 30.4522 1.58945 27.1342 0.704179 23.3096C-0.128944 19.7786 0.365887 14.6481 2.37956 11.6301C3.9826 9.22747 4.89839 8.18694 7.6655 7.53859Z" fill="#007BC0"/>
<path d="M29.4966 11.6183C28.9317 9.62248 28.5687 7.74599 27.2965 6.02933C27.2512 5.96822 27.2083 5.76876 27.1969 5.69307C27.5655 5.64883 27.7171 5.80158 28.0086 6.02035C34.3584 10.786 34.9456 19.7368 30.3583 25.9668C26.9273 30.6265 18.1368 34.3423 12.8814 30.4617C11.9345 29.7624 11.3819 28.7989 10.7928 27.7973C10.7911 26.4743 10.8141 25.5022 11.8518 24.5258C13.8153 22.6782 16.2825 22.5243 18.7715 22.9869C23.8423 23.9294 28.6292 19.8825 29.3729 14.925C29.4307 14.5544 29.5405 13.6552 29.6921 13.3784C29.8733 12.726 29.7106 12.2219 29.4966 11.6183Z" fill="#32C4E6"/>
<path d="M167.524 1.00551C170.292 0.689463 170.041 1.73539 169.925 4.06226C167.106 8.05935 165.925 3.76492 165.065 3.37638C162.807 3.46729 160.969 7.96418 162.488 9.67606C163.091 10.3562 165.864 9.99309 166.762 9.94499C166.681 11.441 166.542 12.1051 164.743 12.006C163.856 11.957 163.068 11.9464 162.183 11.9732C161.57 14.4897 161.175 17.1778 160.58 19.7257C159.25 25.43 159.02 29.6979 155.048 34.2826C154.354 35.0457 152.989 36.6025 152.061 36.9062C151.676 36.8636 151.794 36.931 151.555 36.6372C151.417 35.8429 152.128 34.8538 152.461 34.1157C152.955 32.9897 153.376 31.8329 153.723 30.6524C154.43 28.2315 154.943 25.3435 155.463 22.8285C156.197 19.2885 157.164 15.4762 157.821 11.9526C156.642 11.9524 155.519 11.9506 154.34 11.8955L154.878 10.0728C155.791 9.99637 157.217 10.0312 158.172 10.03C158.298 9.03345 158.715 7.55583 159.087 6.63292C160.388 3.41355 164.095 1.13098 167.524 1.00551Z" fill="#007BC0"/>
<path d="M209.071 4.14075C210.328 4.07821 211.902 4.11086 213.183 4.10133C213.132 5.7923 212.395 8.16213 212.133 9.99676C213.106 10.0658 217.323 9.8537 217.757 10.1071C218.668 12.723 213.114 11.919 211.743 11.9767C211.45 13.0544 211.032 15.1252 210.806 16.2521C210.264 18.9454 209.253 21.9721 209.418 24.6671C209.647 25.0655 209.952 25.4018 210.249 25.752C212.163 26.4625 212.572 25.9307 214.513 25.5959C214.826 25.5418 214.914 25.6389 215.115 25.8058C215.239 26.282 215.235 26.107 215.115 26.5904C212.847 28.2726 211.305 29.1501 208.421 28.9151C203.656 28.5268 204.556 24.8722 205.209 21.4808C205.832 18.2468 206.661 15.148 207.344 11.9607C206.185 11.9124 204.888 11.9421 203.694 11.9107C205.122 7.06734 207.145 12.8752 208.144 8.34934C208.438 7.02143 208.615 5.39833 209.071 4.14075Z" fill="#007BC0"/>
<path d="M48.2979 9.51587C49.6982 9.36422 51.4878 9.91017 52.8168 10.3599C54.5658 10.9518 54.2304 12.0736 53.6596 13.5062C52.9331 14.0548 51.7922 14.6022 50.8642 14.1963C49.2449 13.4582 50.4559 10.2512 47.9706 11.1221C45.9452 11.9703 45.2555 13.9484 46.8141 15.6932C48.1656 17.2062 49.8851 18.2563 51.1417 19.7998C52.9265 21.9921 52.557 24.1326 51.4689 26.5224C49.123 28.4611 47.4743 28.7832 44.6077 28.9355C44.3466 28.9377 44.0854 28.9296 43.825 28.9113C42.3572 28.8065 38.8422 28.412 39.0024 26.3008C39.1894 24.2648 42.3216 22.8432 43.3859 25.0316C43.7577 25.7964 43.6689 26.4472 43.5633 27.2502C43.8689 27.2904 44.1756 27.3209 44.4831 27.3419C45.8145 27.4205 46.736 26.958 47.6853 26.1097C49.518 21.2521 42.271 20.539 41.7907 16.4034C41.2427 11.6851 44.6517 10.2267 48.2979 9.51587Z" fill="#007BC0"/>
<path d="M225.047 9.51356C226.361 9.33 229.97 10.0374 230.83 11.3101C231.106 11.7208 230.687 12.7847 230.531 13.2844L229.659 14.1225C229.433 14.1546 228.771 14.2479 228.583 14.2344C226.342 14.5422 226.661 11.4569 226.09 11.1891C224.711 10.5426 222.523 12.0108 222.782 13.7682C223.165 16.3675 225.293 17.0779 226.935 18.7495C228.248 20.0849 229.027 20.958 229.095 22.8629C229.356 27.6287 225.214 28.7718 221.289 28.9378C219.86 28.9446 216.846 28.5388 216.034 27.3596C214.683 25.4011 218.386 22.6039 219.932 24.6575C220.459 25.3561 220.306 26.3628 220.158 27.1607C222.063 27.571 223.073 27.324 224.502 26.0367C226.19 21.037 219.106 20.7525 218.592 16.3897C218.037 11.6756 221.316 10.2491 225.047 9.51356Z" fill="#007BC0"/>
<path d="M94.6961 9.51842C95.7957 9.36512 99.0853 9.86743 99.6285 10.8833C101.017 13.4797 97.1343 17.0206 95.0118 13.7749C94.9327 12.6018 94.9867 12.383 95.334 11.239C91.2824 11.3865 88.8139 14.6672 88.0457 18.4489C87.7117 20.0934 87.6912 22.93 88.6753 24.3559C89.2768 25.2145 90.1947 25.7988 91.227 25.9804C92.5367 26.2169 94.3611 25.6997 95.4214 24.9644C95.7438 24.7289 96.1313 24.4486 96.5283 24.4889C96.9929 24.848 96.8003 25.3322 96.4722 25.7567C94.2631 28.6135 88.7644 30.055 85.7095 27.916C81.5133 24.978 83.0345 18.6146 85.5351 15.0538C86.7954 13.2591 89.0314 11.188 91.0893 10.3749C92.1888 9.94905 93.534 9.73208 94.6961 9.51842Z" fill="#007BC0"/>
<path d="M70.6693 9.51968C71.4105 9.63444 71.4572 10.0188 71.9682 10.6492C72.0752 11.807 72.07 12.5921 71.9874 13.7305C70.636 15.416 69.4658 15.8228 67.4727 14.8154C67.1817 14.1694 67.2809 13.5339 66.9778 13.2801C66.8993 13.2715 66.7114 13.2297 66.6543 13.2821C62.2216 17.3385 61.8884 23.2293 60.2002 28.5513C59.1268 28.5779 57.2594 28.7029 56.2484 28.4633C55.7826 28.3529 56.9555 23.7618 57.1313 23.2541C57.1228 21.8492 57.9419 19.6881 58.1086 18.1822C58.3319 16.1634 59.284 12.8303 57.2277 11.4611C56.747 11.1411 56.0034 11.1552 55.6414 10.6528C55.7228 10.5272 55.8074 10.4019 55.9055 10.2884C56.0902 10.0743 56.356 9.99657 56.6304 9.98081C57.0694 9.95559 57.5271 10.0381 57.9711 10.0357C59.1494 10.0293 60.4394 9.88083 61.6027 10.0393C61.9167 10.0821 62.2828 10.1633 62.5243 10.3839C63.2118 11.0119 62.2147 15.1639 62.2576 16.3548C62.5764 16.2431 63.2413 14.5697 63.5577 14.134C65.852 10.9733 67.0295 10.2361 70.6693 9.51968Z" fill="#007BC0"/>
<path d="M201.628 9.51221C202.166 9.54121 202.489 10.0769 202.808 10.4686C203.014 11.7391 203.27 12.9177 202.543 14.0835C201.812 15.2548 200.319 15.8584 199.074 15.0641C198.192 14.5018 198.176 13.9641 197.971 13.016C192.979 16.3261 192.036 27.7581 190.946 28.4591C190.08 28.6788 187.959 28.6367 187.12 28.3936C186.833 27.7785 187.744 24.4849 187.957 23.7324C188.333 20.5447 189.908 16.6101 189.388 13.2938C189.353 13.0647 189.018 12.2099 188.912 11.9244C188.367 11.6536 186.554 11.0087 186.764 10.3594C187.519 9.80038 192.376 9.97481 193.485 10.0666C193.688 12.938 193.111 14.5778 193.212 16.79C193.542 15.9066 193.966 15.0614 194.478 14.269C196.517 11.1478 198.176 10.2313 201.628 9.51221Z" fill="#007BC0"/>
<path d="M73.6747 10.0087C76.0574 10.0376 78.4404 10.0308 80.8228 9.98846C80.794 10.0551 80.7666 10.1223 80.7406 10.1901C80.4317 10.99 79.936 13.4392 79.6993 14.4479C79.1315 16.8759 78.5957 19.3113 78.0919 21.7535C77.8486 22.9054 77.1852 24.9484 77.5314 26.0516C77.922 27.2962 80.0659 26.3135 80.402 27.1178C80.3396 27.4734 80.1246 27.6707 79.8866 27.9375C76.8832 29.2222 72.5455 30.115 73.0375 25.2179C73.4714 20.8976 75.1168 16.6281 75.5705 12.3409C75.6388 11.6953 73.4343 11.2468 73.1013 10.511C73.2811 10.1298 73.2359 10.2382 73.6747 10.0087Z" fill="#007BC0"/>
<path d="M212.124 34.367C213.186 34.2723 213.271 34.5679 213.025 35.5996C212.916 36.056 212.806 36.5154 212.708 36.9751C213.136 36.8859 213.751 36.6587 214.181 36.5146C215.384 36.9566 215.502 36.984 216.274 37.9942C216.397 40.2006 216.322 41.6645 213.921 42.5286C213.036 42.555 212.791 42.4138 211.946 42.2815C211.35 42.188 209.845 42.841 209.398 42.1817C209.499 41.5675 210.153 41.0651 210.608 40.69C210.712 39.5347 211.268 37.2306 211.532 35.9873C211.371 35.6104 211.108 35.0888 211.219 34.7036C211.549 34.3892 211.631 34.4561 212.124 34.367ZM213.937 41.0077C214.237 40.9901 214.47 40.7543 214.66 40.5402C214.98 40.1778 215.166 39.6528 215.133 39.1697C215.11 38.8122 214.974 38.4359 214.696 38.1975C214.286 37.8462 213.81 37.9524 213.312 37.9817L213.294 37.9828C212.682 38.3151 212.376 38.7459 212.177 39.4116C212.048 39.8425 212.018 40.41 212.246 40.8159C212.363 41.024 212.577 41.1769 212.806 41.237C213.25 41.3536 213.55 41.2014 213.937 41.0077Z" fill="#007BC0"/>
<path d="M113.468 36.5718C113.61 36.6301 113.751 36.693 113.891 36.755C116.041 37.7047 114.022 39.6011 114.372 40.8812C114.441 41.1327 114.722 41.3957 114.817 41.6624C114.915 41.9414 114.817 42.0921 114.698 42.3353C114.229 42.6808 113.254 42.4955 112.707 42.4474C112.73 41.1074 113.671 39.1904 113.182 37.9527C112.658 37.8463 112.206 38.2212 111.783 38.5001C111.617 39.0102 111.052 40.353 111.204 40.876C111.349 41.3718 111.715 41.6063 111.67 42.1753C111.414 42.4408 111.295 42.4491 110.935 42.5335C110.604 42.5332 110.066 42.5978 109.774 42.4436C109.056 42.0645 110.424 39.1328 110.169 38.3344C110.097 38.1094 109.998 38.0878 109.802 37.9855C109.34 37.9682 108.914 38.2509 108.517 38.4594C108.239 39.2208 108.092 40.0765 107.897 40.8656C108.073 40.9762 108.335 41.1433 108.446 41.3223C108.614 41.5946 108.575 41.7878 108.513 42.0775C108.323 42.2942 108.138 42.4119 107.861 42.4927C107.221 42.6787 106.488 42.6295 105.904 42.3082C105.713 42.0569 105.697 42.0233 105.721 41.7059C105.922 41.3438 106.203 41.1889 106.548 40.9888C106.738 40.4178 107.324 38.693 107.071 38.1478C106.896 37.7691 106.674 37.4441 106.822 37.0411C107.507 36.5881 108.496 37.0022 109.25 36.9353C109.612 36.9032 110.018 36.7111 110.357 36.5796C110.721 36.6231 111.195 37.0156 111.543 37.1726C111.854 37.3127 113.121 36.7021 113.468 36.5718Z" fill="#007BC0"/>
<path d="M174.758 36.5899C175.096 36.672 175.394 36.9235 175.72 37.0522C176.47 37.3477 177.331 36.8271 178.007 36.5237C178.33 36.6897 178.823 36.9437 179.04 37.237C179.572 37.9574 178.919 39.6771 178.837 40.5255C178.778 41.137 179.355 41.4357 179.257 42.1175C179.115 42.2985 179.036 42.4566 178.792 42.5066C178.46 42.5753 177.642 42.5533 177.369 42.3681C176.844 42.0108 178.113 39.1845 177.902 38.1484C177.806 38.0279 177.775 37.9356 177.615 37.9156C177.113 37.8526 176.628 38.3012 176.254 38.5874C176.083 39.1018 175.548 40.3235 175.676 40.8333C175.811 41.3737 176.26 41.4526 176.198 42.1815C176.066 42.3822 176.046 42.4438 175.811 42.5254C175.316 42.5405 174.726 42.6252 174.272 42.402C174.138 42.2511 174.047 42.185 174.033 41.9705C173.981 41.189 174.786 39.5369 174.655 38.3292C174.63 38.1038 174.616 38.0435 174.441 37.9026C174.266 37.9238 174.075 37.9473 173.91 38.0122C173.403 38.2117 173.016 38.7751 172.815 39.2588C172.625 39.7147 172.388 40.5569 172.598 41.0206C172.702 41.2491 172.881 41.4521 172.966 41.6873C173.065 41.9644 172.996 42.1391 172.87 42.3809C172.523 42.4742 172.187 42.5345 171.831 42.5637C171.391 42.5997 170.948 42.6191 170.592 42.3162C170.27 41.4432 171.355 39.9101 171.545 38.9466C171.613 38.5963 171.716 38.3574 171.514 38.0536C171.277 37.6984 171.193 37.4873 171.278 37.0612C171.918 36.573 173.038 36.9951 173.804 36.9087C174.119 36.8729 174.464 36.7103 174.758 36.5899Z" fill="#007BC0"/>
<path d="M166.477 36.5604C166.53 36.557 166.582 36.5575 166.634 36.567C167.677 36.7582 168.308 37.2375 168.918 38.0783C168.937 39.2473 168.966 40.372 168.211 41.3432C167.632 42.0873 166.745 42.467 165.831 42.5789C165.479 42.568 165.142 42.5442 164.804 42.438C163.946 42.1688 163.531 41.5997 163.136 40.8471C163.118 39.9763 163.141 39.1961 163.566 38.4145C164.181 37.2832 165.324 36.9038 166.477 36.5604ZM166.398 41.1243C166.996 40.768 167.358 40.3649 167.53 39.6718C167.629 39.2652 167.557 38.8361 167.333 38.4829C167.182 38.2426 166.928 38.0179 166.645 37.9581C166.344 37.8951 165.957 37.9547 165.65 37.9774C165.05 38.5418 164.675 39.1495 164.643 39.9948C164.63 40.3337 164.692 40.6826 164.93 40.9383C165.144 41.1686 165.44 41.2417 165.745 41.2478C165.972 41.2524 166.183 41.1926 166.398 41.1243Z" fill="#007BC0"/>
<path d="M133.594 36.583C133.937 36.4952 134.772 36.7927 135.072 36.9586C135.561 37.2303 135.834 37.7443 135.977 38.2675C136.332 39.5636 135.843 40.5798 135.209 41.6847C134.582 42.0875 133.914 42.4534 133.173 42.5844C132.171 42.548 131.653 42.3918 130.818 41.8317C130.613 41.3064 130.436 40.7653 130.247 40.2338C130.396 39.5694 130.522 38.868 130.861 38.2705C131.463 37.2123 132.489 36.8895 133.594 36.583ZM133.491 41.0117C133.834 40.9769 134.078 40.8645 134.304 40.5833C134.62 40.19 134.799 39.6318 134.736 39.1277C134.689 38.7516 134.514 38.3497 134.203 38.1192C133.844 37.8549 133.301 37.9422 132.888 37.9779C132.29 38.3302 131.983 38.8122 131.815 39.4741C131.711 39.8814 131.692 40.3718 131.913 40.7456C132.048 40.972 132.246 41.1055 132.5 41.1681C132.851 41.2554 133.163 41.1355 133.491 41.0117Z" fill="#007BC0"/>
<path d="M141.079 36.5757C141.244 36.5214 141.367 36.5494 141.532 36.5886C142.562 36.8323 143.041 37.3581 143.575 38.2267C143.621 39.2472 143.631 40.0801 143.099 40.9976C142.584 41.8879 141.777 42.3112 140.818 42.5687C140.505 42.5749 140.191 42.5732 139.88 42.5371C138.962 42.4305 138.49 41.8923 137.951 41.2136C137.881 40.1961 137.834 39.0829 138.372 38.1736C138.973 37.159 140.009 36.8552 141.079 36.5757ZM141.207 41.0306C141.601 40.8362 141.886 40.4028 142.161 40.0684C142.172 39.4895 142.312 38.6758 141.879 38.2233C141.689 38.0242 141.419 37.9544 141.149 37.9511C140.86 37.9476 140.567 37.9605 140.279 37.9769C139.691 38.5461 139.243 39.173 139.23 40.03C139.225 40.338 139.3 40.6866 139.527 40.9106C139.756 41.1361 140.109 41.245 140.426 41.2331C140.682 41.2235 140.965 41.1138 141.207 41.0306Z" fill="#007BC0"/>
<path d="M188.636 36.5697C189.05 36.531 189.693 36.8461 190.092 36.9896C190.405 37.3279 190.684 37.7005 190.969 38.0617C191.05 39.2735 191.064 40.4118 190.271 41.4159C189.689 42.1543 188.867 42.4762 187.959 42.5802C187.606 42.5704 187.254 42.5354 186.911 42.4459C186.09 42.2326 185.72 41.5726 185.317 40.8968C185.296 40.0177 185.314 39.1389 185.75 38.3485C186.375 37.2182 187.487 36.909 188.636 36.5697ZM188.479 41.1604C189.057 40.8675 189.437 40.4962 189.643 39.8663C189.788 39.4236 189.779 39.0105 189.562 38.5956C189.417 38.3216 189.189 38.0666 188.883 37.9771C188.567 37.8847 188.133 37.9543 187.805 37.9801C187.182 38.5792 186.765 39.142 186.738 40.0418C186.728 40.3648 186.787 40.6853 187.017 40.9268C187.25 41.1721 187.631 41.2383 187.956 41.2417C188.139 41.2437 188.306 41.2126 188.479 41.1604Z" fill="#007BC0"/>
<path d="M225.29 36.5812C225.691 36.5615 226.245 36.8331 226.63 36.9624C227.018 37.3406 227.316 37.7092 227.602 38.1709C227.637 38.8119 227.63 39.4248 227.575 40.0645C226.571 40.0527 225.561 40.0238 224.557 40.0506C224.175 40.0608 223.784 40.0671 223.512 40.3537C223.546 40.4355 223.582 40.5163 223.621 40.5961C223.766 40.8956 223.966 41.1687 224.293 41.278C224.804 41.4493 225.26 41.0283 225.695 40.8126C226.015 40.6534 226.326 40.6551 226.659 40.771L226.688 40.7816C226.853 40.9049 226.942 41.064 227.045 41.2369C227.04 41.3714 227.058 41.5103 226.98 41.6226C226.646 42.1021 225.988 42.3221 225.431 42.4222C224.321 42.6226 223.541 42.4699 222.61 41.8261C222.532 41.6177 222.461 41.4062 222.399 41.1921C222.131 40.2439 222.068 39.2286 222.573 38.3409C223.176 37.2799 224.174 36.8886 225.29 36.5812ZM225.613 39.04C225.955 39.009 226.101 39.0354 226.373 38.8168C226.42 38.6025 226.435 38.5326 226.313 38.3423C226.183 38.1402 225.881 37.918 225.645 37.8687C225.396 37.8171 225.099 37.8494 224.847 37.8625C224.507 38.0466 224.17 38.1986 223.972 38.5476C223.987 38.6467 223.976 38.7463 224.059 38.8073C224.485 39.1207 225.108 39.0448 225.613 39.04Z" fill="#007BC0"/>
<path d="M98.0137 36.5749C98.3385 36.5576 98.973 36.7683 99.2609 36.9219C100.618 37.6461 99.4016 39.7613 99.5293 40.848C99.5596 41.1054 99.8375 41.562 99.9259 41.8477C99.8702 42.1446 99.8443 42.2048 99.6269 42.4176C98.9307 42.5791 96.3465 42.5774 95.7243 42.3217C95.3744 42.178 95.1282 41.9268 94.9825 41.5824C94.2703 40.0895 95.4994 38.9362 96.9805 38.7309C97.4535 38.6653 98.1138 39.4281 98.507 38.8547C98.6875 36.75 96.9113 38.7016 95.7451 38.0511C95.5669 37.2409 97.4385 36.745 98.0137 36.5749ZM97.3776 41.3294C97.686 41.0998 97.8951 40.9163 98.0685 40.5693C98.05 40.2666 98.0255 40.2584 97.8141 40.0643C97.4798 39.9738 97.1845 39.9615 96.8393 39.9705C96.5124 40.1666 96.2709 40.2981 96.1494 40.6754C96.1782 40.9916 96.2112 41.0366 96.4263 41.2672C96.7775 41.4084 97.0089 41.3975 97.3776 41.3294Z" fill="#007BC0"/>
<path d="M206.199 36.578C206.48 36.5163 207.136 36.7352 207.401 36.8596C208.763 37.5007 207.544 39.8331 207.716 40.8763C207.755 41.1169 207.991 41.4185 208.069 41.6696C208.159 41.9643 208.063 42.1197 207.932 42.3719C207.085 42.655 205.627 42.4696 204.713 42.4309C203.872 42.3952 203.527 42.145 202.976 41.5461C202.942 40.9853 202.908 40.445 203.179 39.9293C203.583 39.1579 204.491 38.9532 205.255 38.7211C205.554 38.8684 206.064 39.0543 206.402 39.0445C206.623 39.0379 206.675 38.9875 206.821 38.8302C206.865 38.5264 206.863 38.3408 206.73 38.0606C206.441 37.4593 204.631 38.3635 204.082 38.1674C203.962 37.9 203.995 37.8424 204.058 37.5678C204.721 36.971 205.371 36.8241 206.199 36.578ZM205.561 41.3036C205.868 41.071 206.202 40.8567 206.362 40.4937C206.338 40.3217 206.358 40.2492 206.211 40.1403C205.945 39.9438 205.371 39.9583 205.042 39.9652C204.713 40.1519 204.478 40.2796 204.333 40.6427C204.348 40.9613 204.361 41.0133 204.57 41.2568C204.913 41.4254 205.198 41.3976 205.561 41.3036Z" fill="#007BC0"/>
<path d="M79.3978 1.42771C81.1372 1.32805 81.3456 1.59171 82.183 3.08704C82.1689 5.0224 81.7566 5.7314 80.0459 6.58042C79.3544 6.64761 78.9512 6.60199 78.2562 6.53948C77.4408 6.01911 77.126 5.69299 77.0189 4.6676C76.9407 3.86911 77.1811 3.07208 77.6876 2.45009C78.1063 1.9407 78.724 1.49126 79.3978 1.42771Z" fill="#007BC0"/>
<path d="M91.1425 36.5504C92.2852 37.0154 93.1758 36.7852 93.6226 36.9937C93.6411 37.0403 93.6554 37.0885 93.6654 37.1377C93.7309 37.4695 93.4467 38.1396 93.2511 38.4244C92.3489 38.9275 91.8425 37.7998 90.9272 37.853C88.7101 37.9819 89.0356 43.3927 91.8035 40.6279C92.2734 40.5278 92.345 40.4813 92.6478 40.8538C92.6697 41.1286 92.7201 41.2431 92.5663 41.5006C91.612 43.1492 88.6343 42.8359 88.1106 41.0097C87.7015 39.5832 88.6386 37.7016 89.8976 36.9838C90.1864 36.819 90.8142 36.6478 91.1425 36.5504Z" fill="#007BC0"/>
<path d="M126.787 36.5779C127.015 36.6135 127.271 36.7567 127.504 36.8178C128.038 36.9575 128.639 36.8839 129.183 36.8521C129.153 37.3839 129.154 37.9272 128.811 38.3609C128.63 38.4555 128.529 38.5307 128.319 38.5246C127.562 38.5023 126.931 37.7638 126.133 37.8851C125.871 37.9251 125.663 38.0967 125.513 38.308C125.139 38.8347 124.928 39.7464 125.038 40.3793C125.102 40.7413 125.257 41.0866 125.568 41.2999C125.787 41.4504 126.049 41.4928 126.308 41.4385C126.78 41.3393 127.099 40.8984 127.344 40.5179L127.866 40.5489C128.083 40.7267 128.098 40.8192 128.184 41.0778C128.164 41.2829 128.121 41.4534 127.999 41.6233C127.638 42.1269 127.076 42.446 126.468 42.5443C125.523 42.6974 124.838 42.3637 124.1 41.8335C123.85 41.3292 123.661 40.7792 123.451 40.2557C123.647 39.5475 123.818 38.7873 124.196 38.1515C124.811 37.1174 125.692 36.8537 126.787 36.5779Z" fill="#007BC0"/>
<path d="M159.505 36.574C160.462 36.9178 161.288 36.9096 162.285 36.8989C162.156 37.2962 161.992 38.1094 161.651 38.3676C160.931 38.9132 160.198 37.9211 159.482 37.8339C159.195 37.799 158.953 37.8913 158.731 38.0695C158.24 38.4642 157.891 39.1531 157.829 39.7719C157.786 40.1978 157.857 40.6847 158.139 41.0236C158.315 41.237 158.578 41.3856 158.857 41.4048C159.409 41.443 159.77 41.039 160.157 40.7009C160.182 40.6478 160.281 40.5891 160.329 40.5506C160.636 40.5694 160.698 40.5833 160.938 40.7783C161.019 40.9485 161.108 41.1359 161.089 41.3284C161.063 41.6003 160.907 41.8316 160.698 41.9995C160.127 42.4569 159.27 42.588 158.557 42.502C157.548 42.3805 157.177 41.9146 156.587 41.16C156.557 40.1225 156.5 39.1375 157.022 38.1943C157.562 37.2199 158.495 36.8655 159.505 36.574Z" fill="#007BC0"/>
<path d="M184.039 34.3398C184.524 34.3097 184.982 34.1993 185.344 34.5503C185.54 36.0099 184.925 35.2183 184.251 35.5618C183.422 35.9842 184.474 37.0944 184.312 37.6429C184.092 37.9736 183.655 38.0314 183.265 38.1322C183.238 39.0459 182.885 40.2161 182.86 40.8219C182.851 41.0779 183.455 41.3114 183.125 42.3754L182.596 42.5146C181.999 42.5339 181.439 42.6381 180.969 42.308C180.616 41.4758 181.526 40.6247 181.727 39.7772C181.841 39.3005 181.897 38.6102 181.945 38.1138C181.555 37.7081 181.583 37.8209 181.496 37.317C181.616 36.9837 182.073 36.7639 182.388 36.568C182.464 36.3394 182.543 36.1117 182.623 35.8847C182.977 34.8983 183.126 34.7712 184.039 34.3398Z" fill="#007BC0"/>
<path d="M196.94 36.5836C196.972 36.5806 196.974 36.5787 197.009 36.5844C197.278 36.6285 197.485 36.7581 197.636 36.9697C197.589 37.1873 197.571 37.2945 197.42 37.4688C197.002 37.9522 196.666 37.9746 196.063 38.016C193.593 40.1464 195.408 41.1401 194.995 42.1966C194.462 42.7038 193.226 42.5273 192.526 42.5119C192.514 42.501 192.494 42.4822 192.482 42.4695C192.253 42.2132 192.222 42.0867 192.237 41.7584C192.445 41.372 192.807 41.1639 193.161 40.9273C193.332 40.3936 193.868 38.7145 193.698 38.2169C193.637 38.0378 193.384 37.9785 193.218 37.9026C193.069 37.6518 193.123 37.441 193.17 37.1685C193.9 36.1877 194.716 37.2481 195.544 37.1623C195.912 37.1242 196.575 36.7352 196.94 36.5836Z" fill="#007BC0"/>
<path d="M104.1 34.3597C104.451 34.3285 104.541 34.3194 104.885 34.3995C105.286 35.5421 103.649 39.2425 103.84 40.6103C103.916 41.1579 104.151 41.9352 103.841 42.3984C103.412 42.5891 102.72 42.529 102.231 42.522C101.844 42.5017 101.655 42.4705 101.386 42.2524C101.257 41.236 102.055 41.3493 102.27 40.7243C102.777 39.2583 103.079 37.5289 103.429 35.9942L103.392 35.9227C103.118 35.4012 102.959 35.159 103.125 34.6263C103.367 34.3889 103.757 34.3935 104.1 34.3597Z" fill="#007BC0"/>
<path d="M219.871 34.3713C220.259 34.3312 220.367 34.3161 220.747 34.404C221.158 35.1439 219.704 39.5691 219.595 40.5932C219.523 41.2706 220.354 41.411 219.763 42.4047C219.36 42.5811 218.525 42.5249 218.049 42.519C217.54 42.409 217.586 42.4977 217.271 42.1828C217.171 41.1845 218.109 41.2687 218.282 40.6441C218.694 39.1579 218.95 37.5236 219.334 36.0113C219.053 35.5088 218.875 35.2129 218.972 34.6745C219.344 34.3852 219.378 34.4514 219.871 34.3713Z" fill="#007BC0"/>
<path d="M147.307 34.3626C147.688 34.3371 148.239 34.2213 148.195 34.6933C148.01 36.6973 147.283 38.7641 146.922 40.7379C146.864 41.0591 147.722 41.4124 147.148 42.4027C146.796 42.5862 146.073 42.5255 145.646 42.5204C145.336 42.4754 144.87 42.4574 144.677 42.2384C144.528 40.9962 145.34 41.5667 145.609 40.6875C146.059 39.2231 146.353 37.5758 146.732 36.0616C146.476 35.5906 146.137 35.1612 146.33 34.6358C146.581 34.4016 146.962 34.4 147.307 34.3626Z" fill="#007BC0"/>
<path d="M201.143 34.8816L201.305 34.9358C201.609 35.3931 201.025 36.2913 201.522 36.8071C202.276 37.59 201.404 37.8734 200.965 38.1726C200.531 38.4695 200.323 40.4058 200.278 40.9357C200.503 41.4839 200.58 40.7901 201.36 41.3146L201.383 41.5804C201.185 42.0955 201.06 42.1936 200.658 42.5472C197.727 42.7883 199.343 39.7721 199.443 38.214C199.463 37.905 198.884 37.5075 199.43 36.7975C200.042 36.0017 200.319 35.5105 201.143 34.8816Z" fill="#007BC0"/>
<path d="M149.945 40.7762C150.205 40.7844 150.54 40.7692 150.786 40.8504C151.056 40.9396 151.108 41.0451 151.225 41.2886C151.226 41.7272 150.882 42.1605 150.659 42.5235C150.382 42.5201 150.103 42.4855 149.825 42.4589C149.712 42.3934 149.556 42.3115 149.478 42.2049C149.344 42.0234 149.294 41.8401 149.33 41.6186C149.392 41.2511 149.658 40.9846 149.945 40.7762Z" fill="#007BC0"/>
<path d="M229.89 40.7944C230.251 40.7889 230.566 40.7937 230.913 40.8995C231.14 41.1293 231.158 41.1715 231.194 41.4926C231.044 41.9295 230.778 42.241 230.49 42.5912C230.146 42.5383 229.684 42.4924 229.458 42.189C229.329 42.0158 229.24 41.858 229.281 41.6346C229.34 41.3216 229.63 40.9699 229.89 40.7944Z" fill="#007BC0" fill-opacity="0.988235"/>
<path d="M117.237 40.7959C117.577 40.7777 117.87 40.7516 118.186 40.8969C118.329 41.0743 118.431 41.1618 118.437 41.4041C118.448 41.8616 118.065 42.2217 117.771 42.5262C117.551 42.5262 117.329 42.5088 117.109 42.4992C116.991 42.4252 116.893 42.3406 116.827 42.216C116.684 41.945 116.624 41.6629 116.721 41.366C116.839 41.0044 116.911 40.9578 117.237 40.7959Z" fill="#007BC0"/>
<path d="M238.527 40.7768C238.764 40.7728 238.969 40.7915 239.202 40.8425C239.294 40.9177 239.391 41.0057 239.451 41.1093C239.576 41.3262 239.623 41.5805 239.556 41.8234C239.447 42.2195 239.26 42.3546 238.927 42.5503C238.708 42.5345 238.49 42.5064 238.271 42.4824C238.188 42.4193 238.105 42.3476 238.043 42.2622C237.9 42.0606 237.833 41.8074 237.884 41.5639C237.97 41.1383 238.189 40.9964 238.527 40.7768Z" fill="#007BC0"/>
<path d="M234.13 40.8131C234.471 40.7834 234.757 40.7524 235.079 40.8841C235.191 41.0235 235.306 41.1213 235.328 41.3052C235.387 41.7977 235.053 42.1989 234.768 42.5607C234.438 42.5507 234.135 42.5734 233.882 42.3337C233.734 42.0523 233.58 41.8456 233.644 41.5134C233.704 41.2021 233.881 40.98 234.13 40.8131Z" fill="#007BC0"/>
</g>
<defs>
<clipPath id="clip0_220_55">
<rect width="239.859" height="43" fill="white"/>
</clipPath>
</defs>
</svg>
