<svg width="192" height="36" viewBox="0 0 192 36" fill="none" xmlns="http://www.w3.org/2000/svg">
<path d="M100.021 14.7157C101.248 12.0325 102.858 9.97343 105.723 8.93892C107.745 8.1223 111.269 8.61249 111.625 11.2886C111.894 14.5143 110.539 18.3359 109.636 21.4555C107.842 27.6561 110.37 25.0827 111.764 25.7901C112.496 27.6495 108.103 28.1478 106.984 27.9292C105.655 27.6692 105.477 27.5942 104.671 26.5402L104.668 26.5175C104.225 22.9431 105.318 21.0388 106.252 17.6401C106.61 16.1526 107.514 14.0795 106.865 12.6086C106.464 11.6994 104.622 11.9279 103.982 12.4016C99.6669 15.5881 98.5296 22.655 97.2366 27.4916C96.4683 27.7238 93.9714 27.6156 93.1047 27.5944C93.3249 24.3102 94.8767 20.4568 95.426 17.1524C95.6251 15.954 97.1324 11.4696 94.2864 12.0071C89.6462 12.8837 88.2513 20.121 87.107 23.9485C86.8458 24.8221 86.6104 26.7577 86.0881 27.4351C85.4849 27.7896 82.8626 27.6057 82.0006 27.5791C81.9362 25.866 82.8228 23.0566 83.2374 21.2796C83.7012 19.2293 84.1416 17.1737 84.5573 15.1133C84.7881 13.9668 85.0317 13.06 84.993 11.875C84.938 10.1787 82.5546 10.5775 82.4492 9.41892L82.6612 9.16997C83.4892 8.97943 87.757 9.09171 89.125 8.99054C89.2105 11.9589 88.8263 12.5541 88.6354 15.2283C90.3571 11.3808 92.2989 9.35332 96.4578 8.56722C96.5574 8.55707 96.6581 8.55214 96.7576 8.55244C100.53 8.56744 100.073 12.0558 100.021 14.7157Z" fill="#007BC0"/>
<path d="M137.913 8.57112C137.972 8.56108 138.03 8.55336 138.089 8.54798C139.596 8.40883 141.877 8.97203 143.085 9.97313C144.388 11.0644 145.202 12.6295 145.348 14.3229C145.991 21.1626 141.177 27.3115 134.25 27.9625C132.391 27.9941 130.897 27.827 129.299 26.7412C125.364 24.0592 126.398 17.4335 128.773 14.0294C131.386 10.2865 133.62 9.34232 137.913 8.57112ZM132.6 25.4209C133.227 25.7123 133.819 26.039 134.513 26.0459C136.489 25.5015 137.729 24.5016 138.724 22.69C140.402 19.6341 141.834 13.8455 139.207 10.9894C138.892 10.8868 138.034 10.5881 137.749 10.5574C136.699 10.7428 136.289 10.8722 135.409 11.5197C132.179 13.8969 130.008 22.1682 132.6 25.4209Z" fill="#007BC0"/>
<path d="M72.2166 8.56942C72.259 8.56205 72.3017 8.55605 72.3445 8.55144C76.4818 8.07607 79.9571 11.5852 79.7802 15.5256C79.4898 22.0062 74.9103 27.3149 68.5462 27.9613C59.9854 28.5251 59.2369 19.333 63.1656 13.8402C65.7152 10.2757 68.008 9.29588 72.2166 8.56942ZM69.0128 26.0246C69.9497 25.6352 70.8799 25.2513 71.6125 24.5074C74.2495 21.8294 76.3657 13.7826 73.2461 10.8738C72.8266 10.7605 72.2934 10.5954 71.8693 10.5651C66.8516 11.4692 65.2973 19.2784 65.9654 23.5085C66.2353 25.2181 67.2902 26.0578 69.0128 26.0246Z" fill="#007BC0"/>
<path d="M128.527 0.0551313C131.295 -0.260915 131.044 0.785009 130.928 3.11188C128.109 7.10897 126.927 2.81454 126.068 2.426C123.81 2.51691 121.972 7.0138 123.491 8.72568C124.094 9.40584 126.867 9.04271 127.765 8.99461C127.684 10.4906 127.545 11.1548 125.746 11.0556C124.859 11.0067 124.071 10.996 123.185 11.0228C122.573 13.5393 122.178 16.2275 121.583 18.7754C120.253 24.4796 120.023 28.7475 116.051 33.3322C115.357 34.0953 113.992 35.6521 113.064 35.9558C112.679 35.9133 112.797 35.9806 112.558 35.6868C112.42 34.8925 113.131 33.9034 113.463 33.1654C113.958 32.0393 114.379 30.8825 114.726 29.702C115.433 27.2812 115.946 24.3931 116.466 21.8782C117.2 18.3381 118.167 14.5259 118.824 11.0022C117.645 11.002 116.521 11.0002 115.343 10.9451L115.881 9.12246C116.794 9.04599 118.22 9.08087 119.175 9.07958C119.301 8.08307 119.718 6.60545 120.09 5.68254C121.391 2.46317 125.098 0.180602 128.527 0.0551313Z" fill="#007BC0"/>
<path d="M170.074 3.19037C171.331 3.12783 172.905 3.16048 174.186 3.15096C174.135 4.84192 173.398 7.21175 173.136 9.04639C174.109 9.11545 178.326 8.90333 178.76 9.15669C179.671 11.7726 174.117 10.9686 172.746 11.0264C172.453 12.1041 172.035 14.1749 171.809 15.3018C171.266 17.9951 170.256 21.0217 170.421 23.7168C170.65 24.1151 170.955 24.4514 171.252 24.8016C173.166 25.5121 173.575 24.9803 175.516 24.6455C175.829 24.5914 175.917 24.6885 176.118 24.8554C176.242 25.3317 176.238 25.1566 176.118 25.64C173.85 27.3222 172.308 28.1998 169.424 27.9647C164.659 27.5764 165.559 23.9218 166.212 20.5304C166.835 17.2964 167.664 14.1976 168.347 11.0103C167.188 10.962 165.891 10.9917 164.697 10.9603C166.125 6.11696 168.148 11.9248 169.147 7.39896C169.441 6.07105 169.617 4.44795 170.074 3.19037Z" fill="#007BC0"/>
<path d="M9.30079 8.56549C10.7012 8.41385 12.4908 8.95979 13.8197 9.40951C15.5688 10.0014 15.2333 11.1232 14.6625 12.5558C13.936 13.1044 12.7951 13.6518 11.8671 13.2459C10.2478 12.5078 11.4588 9.30082 8.97356 10.1718C6.9481 11.0199 6.25839 12.998 7.81701 14.7429C9.16856 16.2558 10.888 17.3059 12.1447 18.8494C13.9294 21.0417 13.5599 23.1822 12.4718 25.5721C10.1259 27.5107 8.47721 27.8328 5.61061 27.9851C5.34955 27.9873 5.08837 27.9792 4.8279 27.961C3.36017 27.8561 -0.154919 27.4616 0.00529916 25.3504C0.192338 23.3144 3.32457 21.8928 4.38882 24.0812C4.76068 24.846 4.67178 25.4968 4.56626 26.2998C4.87182 26.34 5.17856 26.3706 5.48599 26.3915C6.8174 26.4701 7.73889 26.0076 8.68826 25.1593C10.5209 20.3017 3.27397 19.5886 2.79367 15.453C2.24567 10.7348 5.65464 9.27627 9.30079 8.56549Z" fill="#007BC0"/>
<path d="M186.05 8.56319C187.364 8.37962 190.973 9.08704 191.832 10.3597C192.109 10.7705 191.69 11.8343 191.534 12.3341L190.662 13.1721C190.436 13.2042 189.773 13.2975 189.586 13.284C187.344 13.5918 187.664 10.5066 187.093 10.2388C185.714 9.59221 183.526 11.0605 183.785 12.8178C184.168 15.4172 186.296 16.1275 187.938 17.7992C189.251 19.1345 190.03 20.0076 190.098 21.9125C190.359 26.6784 186.217 27.8214 182.292 27.9875C180.863 27.9943 177.848 27.5884 177.037 26.4092C175.686 24.4507 179.389 21.6536 180.935 23.7071C181.462 24.4057 181.309 25.4124 181.161 26.2103C183.066 26.6206 184.076 26.3736 185.505 25.0863C187.193 20.0866 180.109 19.8021 179.595 15.4393C179.04 10.7252 182.319 9.29868 186.05 8.56319Z" fill="#007BC0"/>
<path d="M55.699 8.56804C56.7986 8.41474 60.0882 8.91705 60.6314 9.93291C62.0198 12.5294 58.1373 16.0703 56.0147 12.8245C55.9357 11.6514 55.9897 11.4326 56.3369 10.2887C52.2853 10.4361 49.8168 13.7169 49.0486 17.4985C48.7146 19.1431 48.6941 21.9796 49.6782 23.4056C50.2798 24.2642 51.1976 24.8485 52.2299 25.0301C53.5397 25.2665 55.364 24.7493 56.4243 24.014C56.7467 23.7785 57.1343 23.4982 57.5312 23.5385C57.9958 23.8977 57.8033 24.3818 57.4751 24.8063C55.266 27.6631 49.7674 29.1046 46.7124 26.9657C42.5162 24.0276 44.0375 17.6642 46.5381 14.1034C47.7984 12.3087 50.0343 10.2376 52.0922 9.42449C53.1917 8.99867 54.5369 8.7817 55.699 8.56804Z" fill="#007BC0"/>
<path d="M31.6723 8.56931C32.4134 8.68406 32.4601 9.06839 32.9711 9.69885C33.0782 10.8566 33.0729 11.6417 32.9903 12.7801C31.6389 14.4656 30.4688 14.8724 28.4756 13.8651C28.1846 13.219 28.2838 12.5835 27.9807 12.3297C27.9022 12.3212 27.7144 12.2793 27.6572 12.3317C23.2245 16.3881 22.8913 22.2789 21.2031 27.6009C20.1297 27.6275 18.2623 27.7525 17.2513 27.5129C16.7855 27.4026 17.9585 22.8114 18.1343 22.3037C18.1257 20.8988 18.9449 18.7378 19.1115 17.2318C19.3349 15.2131 20.2869 11.8799 18.2307 10.5108C17.7499 10.1907 17.0063 10.2048 16.6443 9.70244C16.7257 9.57682 16.8104 9.4515 16.9084 9.338C17.0931 9.12396 17.3589 9.0462 17.6334 9.03044C18.0723 9.00521 18.53 9.08774 18.974 9.08533C20.1523 9.07893 21.4423 8.93045 22.6056 9.08893C22.9196 9.13168 23.2857 9.21292 23.5272 9.4335C24.2147 10.0615 23.2176 14.2135 23.2606 15.4044C23.5794 15.2927 24.2442 13.6194 24.5606 13.1836C26.8549 10.0229 28.0325 9.28572 31.6723 8.56931Z" fill="#007BC0"/>
<path d="M162.631 8.56183C163.169 8.59083 163.492 9.12656 163.811 9.51826C164.017 10.7887 164.273 11.9673 163.546 13.1331C162.815 14.3044 161.322 14.9081 160.077 14.1137C159.195 13.5514 159.179 13.0137 158.974 12.0656C153.982 15.3757 153.039 26.8077 151.949 27.5087C151.083 27.7284 148.962 27.6863 148.123 27.4432C147.836 26.8281 148.747 23.5345 148.96 22.782C149.336 19.5944 150.911 15.6597 150.391 12.3434C150.356 12.1144 150.021 11.2595 149.914 10.974C149.37 10.7032 147.557 10.0583 147.767 9.40901C148.522 8.85 153.379 9.02444 154.488 9.11626C154.691 11.9876 154.114 13.6274 154.215 15.8397C154.545 14.9562 154.969 14.111 155.481 13.3186C157.52 10.1974 159.179 9.28096 162.631 8.56183Z" fill="#007BC0"/>
<path d="M34.6777 9.05831C37.0603 9.08721 39.4433 9.08046 41.8258 9.03809C41.7969 9.10474 41.7695 9.17196 41.7435 9.23971C41.4346 10.0396 40.9389 12.4888 40.7022 13.4975C40.1345 15.9255 39.5986 18.361 39.0948 20.8032C38.8515 21.955 38.1882 23.9981 38.5344 25.1012C38.925 26.3458 41.0688 25.3632 41.405 26.1674C41.3425 26.523 41.1275 26.7203 40.8895 26.9871C37.8861 28.2718 33.5484 29.1646 34.0404 24.2675C34.4743 19.9473 36.1197 15.6777 36.5734 11.3905C36.6417 10.7449 34.4372 10.2964 34.1042 9.5606C34.284 9.17938 34.2388 9.28781 34.6777 9.05831Z" fill="#007BC0"/>
<path d="M40.4007 0.477331C42.1402 0.377669 42.3485 0.641328 43.1859 2.13666C43.1719 4.07203 42.7595 4.78102 41.0488 5.63004C40.3574 5.69723 39.9541 5.65161 39.2592 5.58911C38.4438 5.06874 38.129 4.74261 38.0218 3.71722C37.9437 2.91873 38.184 2.1217 38.6905 1.49971C39.1092 0.99032 39.7269 0.540882 40.4007 0.477331Z" fill="#007BC0"/>
</svg>
