<svg width="224" height="50" viewBox="0 0 224 50" fill="none" xmlns="http://www.w3.org/2000/svg">
<g clip-path="url(#clip0_2_2)">
<mask id="mask0_2_2" style="mask-type:luminance" maskUnits="userSpaceOnUse" x="0" y="0" width="224" height="50">
<path d="M224 0H0V50H224V0Z" fill="white"/>
</mask>
<g mask="url(#mask0_2_2)">
<path d="M9.54878 0C8.60826 0 7.7048 0.375594 7.03764 1.03868L1.04244 7.03428C0.37528 7.702 0 8.61084 0 9.55214V48.8504C0 49.3604 0.416976 49.7778 0.926616 49.7778H35.7858C36.7264 49.7778 37.6298 49.4022 38.297 48.7344L48.6982 38.3198C49.3654 37.6568 49.7408 36.748 49.7408 35.8066V0.927392C49.7408 0.417326 49.3238 0 48.814 0H9.54878ZM42.6336 16.2665C42.6336 17.1011 41.9572 17.7781 41.1232 17.7781H23.0588C22.2526 17.7781 21.5252 18.4412 21.5484 19.248C21.5624 19.6004 21.706 19.925 21.933 20.1708C21.9562 20.194 21.9746 20.2172 22.0024 20.2404L29.7582 28.0072C30.0408 28.2902 30.203 28.675 30.203 29.0738V41.1624C30.203 41.997 29.5266 42.674 28.6926 42.674H21.0528C20.2188 42.674 19.5423 41.997 19.5423 41.1624V19.2944C19.5423 18.4597 18.8659 17.7828 18.0319 17.7828H8.61752C7.78356 17.7828 7.10714 17.1058 7.10714 16.2711V8.62476C7.10714 7.7901 7.78356 7.1131 8.61752 7.1131H18.9169C19.3199 7.1131 19.7045 7.27076 19.9871 7.55824L27.729 15.3066C27.7568 15.3391 27.7938 15.3762 27.8262 15.404C28.058 15.6173 28.3636 15.7518 28.702 15.7749C29.5266 15.8213 30.203 15.0887 30.203 14.2633V8.62938C30.203 7.79474 30.8794 7.11774 31.7134 7.11774H41.1278C41.9618 7.11774 42.6382 7.79474 42.6382 8.62938V16.2757L42.6336 16.2665Z" fill="black"/>
<path d="M60.4014 14.4302V9.50577H85.42V14.4302H75.9222V40.2766H69.8576V14.4302H60.4014Z" fill="black"/>
<path d="M93.1344 36.2842C94.9134 36.2842 96.7388 35.649 97.925 33.655H103.948C102.72 37.0494 99.3704 40.8284 93.176 40.8284C85.8418 40.8284 81.5562 35.3522 81.5562 28.777C81.5562 22.2018 86.2634 16.9342 93.0046 16.9342C99.7458 16.9342 104.453 22.4104 104.198 30.4742H87.3662C87.6626 34.3784 90.3776 36.2888 93.1344 36.2888V36.2842ZM98.2678 26.44C98.1426 22.5774 95.4276 21.2188 92.9676 21.2188C90.7622 21.2188 87.922 22.6192 87.4542 26.44H98.2678Z" fill="black"/>
<path d="M117.731 22.9622C114.849 22.9622 112.94 24.0242 112.94 28.3086V40.2766H107.089V17.4443H112.857V21.432C114.173 18.6313 116.248 17.486 118.88 17.486C119.26 17.486 119.769 17.5277 120.154 17.5695V23.0874C119.306 23.004 118.583 22.9622 117.736 22.9622H117.731Z" fill="black"/>
<path d="M143.343 28.3922V40.2766H137.491V26.9918C137.491 24.4878 137.278 21.6454 133.845 21.6454C129.944 21.6454 129.309 24.9144 129.309 28.3922V40.2766H123.458V17.4443H129.309V20.4582C130.583 18.2094 132.914 16.9342 135.67 16.9342C139.571 16.9342 141.267 19.0162 142.157 20.667C143.936 18.1213 146.229 16.9342 149.662 16.9342C155.389 16.9342 157.381 20.5 157.381 25.8882V40.2766H151.529V26.9918C151.529 24.4878 151.316 21.6454 147.883 21.6454C143.982 21.6454 143.347 24.9144 143.347 28.3922H143.343Z" fill="black"/>
<path d="M166.665 14.9403H160.814V9.51041H166.665V14.9403ZM166.665 40.2766H160.814V17.4442H166.665V40.2766Z" fill="black"/>
<path d="M182.909 16.9342C188.381 16.9342 190.795 20.2868 190.795 25.8882V40.2766H184.943V27.1634C184.943 24.191 184.308 21.6454 181 21.6454C177.141 21.6454 176.293 24.7846 176.293 28.3922V40.2766H170.441V17.4443H176.293V20.4582C177.609 18.1676 180.111 16.9342 182.909 16.9342Z" fill="black"/>
<path d="M193.593 34.1234C193.593 28.7352 199.658 27.1216 208.604 26.1014V25.7212C208.604 22.1972 206.696 20.9684 204.324 20.9684C202.076 20.9684 200.21 22.1554 200.084 24.6594H194.612C195.039 20.1616 198.768 16.8507 204.62 16.8507C210.046 16.8507 214.456 19.1831 214.456 26.9082C214.456 27.6316 214.372 30.641 214.372 32.723C214.372 36.3306 214.628 38.3662 215.048 40.2766H209.666C209.494 39.5532 209.368 38.5378 209.286 37.4342C207.674 39.8084 205.26 40.8284 201.822 40.8284C197.452 40.8284 193.593 38.2828 193.593 34.1234ZM199.616 33.8266C199.616 35.482 200.932 36.8406 203.558 36.8406C207.206 36.8406 208.776 34.8468 208.776 31.536V29.8388C202.248 30.5158 199.616 31.281 199.616 33.8266Z" fill="black"/>
<path d="M218.148 40.2766V9.50577H224V40.272H218.148V40.2766Z" fill="black"/>
</g>
</g>
<defs>
<clipPath id="clip0_2_2">
<rect width="224" height="50" fill="white"/>
</clipPath>
</defs>
</svg>
