<svg width="120" height="28" viewBox="0 0 120 28" fill="none" xmlns="http://www.w3.org/2000/svg">
<path d="M119.4 8.78485L119.04 12.8794H117.36C114.66 12.8794 113.22 15.0156 113.22 17.0925V26.3497H108.42V8.78485H112.98L113.1 10.9805C114.06 9.49694 115.74 8.78485 117.78 8.78485H119.4Z" fill="white"/>
<path d="M86.1599 26.3497H81.3599V17.0332C81.3599 15.0749 81.1799 12.642 78.4199 12.642C75.7799 12.642 74.6999 14.5409 74.6999 16.7365V26.2903H69.8999V8.78483H74.3399L74.4599 11.0398C75.4199 9.55626 77.1599 8.36945 79.7999 8.36945C84.6599 8.36945 86.1599 11.8112 86.1599 15.3123V26.3497Z" fill="white"/>
<path d="M67.8002 22.2552L67.4402 26.231C66.3002 26.5277 65.2802 26.6464 64.0202 26.6464C59.5202 26.6464 58.2002 24.5695 58.2002 20.475V3.80023H63.0002V8.72551H67.8002L67.4402 12.82H63.0002V20.0596C63.0002 21.7211 63.4802 22.6112 65.1602 22.6112C65.9402 22.6706 66.7802 22.5519 67.8002 22.2552Z" fill="white"/>
<path d="M56.6401 8.78485L56.2801 12.8794H54.9601C52.2601 12.8794 50.9401 15.0156 50.9401 17.0925V26.3497H46.1401V8.78485H50.7001L50.8201 10.9805C51.7801 9.49694 53.4601 8.78485 55.5001 8.78485H56.6401Z" fill="white"/>
<path d="M24.48 24.3915C21.24 26.1124 18 27.1211 13.68 27.0025C5.76 26.7651 0 21.8398 0 13.5915C0 5.40246 5.82 0.121146 13.68 0.00246495C17.7 -0.0568757 21.3 0.951915 24.06 3.38488L20.7 6.7673C18.96 5.28378 16.44 4.45301 13.38 4.5717C8.4 4.80906 5.4 8.42884 5.34 13.2948C5.28 18.6354 8.58 22.3146 13.74 22.4332C16.14 22.4926 17.94 22.1959 19.44 21.4838V16.0244H14.1L14.46 11.5739H24.54V24.3915H24.48Z" fill="white"/>
<path d="M106.32 19.2288H93.1798C93.5398 21.4837 95.3398 22.8486 97.5598 22.9079C99.7198 22.9672 100.92 22.3145 102.48 20.7123L105.6 23.0859C103.38 25.8156 100.68 26.765 97.6798 26.765C92.3398 26.765 88.3198 23.0859 88.3198 17.5672C88.3198 12.0486 92.2798 8.36945 97.4998 8.36945C103.2 8.36945 106.32 11.8112 106.32 17.864V19.2288ZM101.52 15.5497C101.4 13.3541 99.7198 11.9299 97.3798 11.9892C95.0398 12.0486 93.4798 13.5914 93.1798 15.5497H101.52Z" fill="white"/>
<path d="M43.1399 14.8376V26.3497H38.9399L38.8199 24.6288C37.4999 26.231 35.3999 26.765 33.2399 26.765C29.9999 26.765 26.8799 25.1629 26.8199 21.4837C26.6999 15.6683 33.4799 15.253 37.6799 15.253H38.5199V15.0156C38.5199 13.1167 37.1999 12.0486 34.7999 12.0486C33.0599 12.0486 31.3199 12.7607 30.0599 13.9475L27.2999 11.1585C29.8199 9.14087 32.3999 8.36945 35.2199 8.36945C40.6799 8.36945 43.1399 10.8618 43.1399 14.8376ZM38.5199 18.6947H37.8599C35.5799 18.6947 31.6199 18.8134 31.6199 21.187C31.6199 24.5101 38.5199 23.442 38.5199 19.4661V18.6947Z" fill="white"/>
<path d="M115.62 24.2728C115.62 23.1453 116.46 22.3146 117.54 22.3146C118.62 22.3146 119.46 23.1453 119.46 24.2728C119.46 25.4003 118.62 26.231 117.54 26.231C116.52 26.2904 115.62 25.4596 115.62 24.2728ZM117.6 26.6464C118.92 26.6464 120 25.6376 120 24.2728C120 22.908 118.86 21.8992 117.6 21.8992C116.28 21.8992 115.2 22.908 115.2 24.2728C115.14 25.6376 116.28 26.6464 117.6 26.6464ZM117.06 24.5102H117.54L118.26 25.697H118.74L117.96 24.5102C118.38 24.4508 118.68 24.2728 118.68 23.7387C118.68 23.2047 118.38 22.9673 117.72 22.9673H116.7V25.697H117.12V24.5102H117.06ZM117.06 24.1541V23.3233H117.6C117.9 23.3233 118.2 23.3827 118.2 23.7387C118.2 24.1541 117.9 24.1541 117.54 24.1541H117.06Z" fill="white"/>
</svg>
