<svg width="18" height="18" viewBox="0 0 18 18" fill="none" xmlns="http://www.w3.org/2000/svg">
<path d="M10.1926 6.38378C10.7302 6.11536 11.1613 5.67327 11.4162 5.12916C11.671 4.58505 11.7347 3.97082 11.5968 3.38602C11.4589 2.80122 11.1276 2.28013 10.6565 1.9072C10.1854 1.53427 9.60214 1.33136 9.0013 1.33136C8.40046 1.33136 7.81723 1.53427 7.34614 1.9072C6.87505 2.28013 6.5437 2.80122 6.40581 3.38602C6.26792 3.97082 6.33156 4.58505 6.58642 5.12916C6.84128 5.67327 7.27242 6.11536 7.80997 6.38378" stroke="#000001" stroke-linecap="round" stroke-linejoin="round"/>
<path d="M11.333 14.0008C11.3316 14.5828 11.5202 15.1494 11.8701 15.6145C12.22 16.0796 12.7121 16.4178 13.2718 16.5777C13.8314 16.7377 14.4279 16.7106 14.9708 16.5006C15.5136 16.2907 15.9731 15.9093 16.2794 15.4144C16.5858 14.9195 16.7222 14.3382 16.6681 13.7587C16.614 13.1792 16.3722 12.6331 15.9795 12.2036C15.5868 11.774 15.0646 11.4843 14.4922 11.3785C13.9199 11.2727 13.3287 11.3566 12.8084 11.6174" stroke="#000001" stroke-linecap="round" stroke-linejoin="round"/>
<path d="M5.19135 11.6178C4.6723 11.3584 4.08281 11.2754 3.51233 11.3814C2.94184 11.4874 2.42148 11.7765 2.03021 12.205C1.63893 12.6335 1.39808 13.1779 1.3442 13.7556C1.29033 14.3333 1.42636 14.9129 1.73166 15.4063C2.03697 15.8998 2.49489 16.2801 3.03594 16.4898C3.577 16.6994 4.17166 16.7268 4.72972 16.5679C5.28778 16.409 5.77877 16.0724 6.12821 15.6092C6.47765 15.1459 6.66647 14.5814 6.66601 14.0011" stroke="#000001" stroke-linecap="round" stroke-linejoin="round"/>
<path d="M11.3333 14.0008C11.3337 13.5057 11.472 13.0205 11.7325 12.5996C11.9931 12.1787 12.3657 11.8386 12.8086 11.6174L10.1919 6.38342C9.82244 6.57015 9.41425 6.66744 9.00026 6.66744C8.58627 6.66744 8.17808 6.57015 7.80859 6.38342L5.19126 11.6174C5.63417 11.8386 6.00676 12.1787 6.26733 12.5996C6.52789 13.0205 6.66614 13.5057 6.66659 14.0008" stroke="#000001" stroke-linecap="round" stroke-linejoin="round"/>
</svg>
